<?xml version="1.0" encoding="UTF-8" standalone="no"?>
<svg
   xmlns:dc="http://purl.org/dc/elements/1.1/"
   xmlns:cc="http://creativecommons.org/ns#"
   xmlns:rdf="http://www.w3.org/1999/02/22-rdf-syntax-ns#"
   xmlns:svg="http://www.w3.org/2000/svg"
   xmlns="http://www.w3.org/2000/svg"
   xmlns:sodipodi="http://sodipodi.sourceforge.net/DTD/sodipodi-0.dtd"
   xmlns:inkscape="http://www.inkscape.org/namespaces/inkscape"
   version="1.1"
   id="Capa_1"
   x="0px"
   y="0px"
   viewBox="0 0 64.216501 64.225138"
   xml:space="preserve"
   sodipodi:docname="animal-charity.svg"
   width="64.216499"
   height="64.225136"
   inkscape:version="1.0 (1.0+r73+1)"><metadata
   id="metadata184"><rdf:RDF><cc:Work
       rdf:about=""><dc:format>image/svg+xml</dc:format><dc:type
         rdf:resource="http://purl.org/dc/dcmitype/StillImage" /></cc:Work></rdf:RDF></metadata><defs
   id="defs182" /><sodipodi:namedview
   inkscape:document-rotation="0"
   pagecolor="#ffffff"
   bordercolor="#666666"
   borderopacity="1"
   objecttolerance="10"
   gridtolerance="10"
   guidetolerance="10"
   inkscape:pageopacity="0"
   inkscape:pageshadow="2"
   inkscape:window-width="1920"
   inkscape:window-height="1043"
   id="namedview180"
   showgrid="false"
   inkscape:zoom="8.0156249"
   inkscape:cx="8.0927532"
   inkscape:cy="30.292258"
   inkscape:window-x="0"
   inkscape:window-y="0"
   inkscape:window-maximized="1"
   inkscape:current-layer="Capa_1" />
<g
   id="g147"
   transform="matrix(0.21730573,0,0,0.22535291,0.10838784,-1.072627)"
   style="fill:#373266;fill-opacity:1">
	<g
   id="g204"
   style="opacity:1;fill:#373266;fill-opacity:1"><path
     style="color:#000000;font-style:normal;font-variant:normal;font-weight:normal;font-stretch:normal;font-size:medium;line-height:normal;font-family:sans-serif;font-variant-ligatures:normal;font-variant-position:normal;font-variant-caps:normal;font-variant-numeric:normal;font-variant-alternates:normal;font-variant-east-asian:normal;font-feature-settings:normal;font-variation-settings:normal;text-indent:0;text-align:start;text-decoration:none;text-decoration-line:none;text-decoration-style:solid;text-decoration-color:#000000;letter-spacing:normal;word-spacing:normal;text-transform:none;writing-mode:lr-tb;direction:ltr;text-orientation:mixed;dominant-baseline:auto;baseline-shift:baseline;text-anchor:start;white-space:normal;shape-padding:0;shape-margin:0;inline-size:0;clip-rule:nonzero;display:inline;overflow:visible;visibility:visible;isolation:auto;mix-blend-mode:normal;color-interpolation:sRGB;color-interpolation-filters:linearRGB;solid-color:#000000;solid-opacity:1;vector-effect:none;fill:#373266;fill-opacity:1;fill-rule:nonzero;stroke:none;stroke-width:1;stroke-linecap:butt;stroke-linejoin:miter;stroke-miterlimit:4;stroke-dasharray:none;stroke-dashoffset:0;stroke-opacity:1;color-rendering:auto;image-rendering:auto;shape-rendering:auto;text-rendering:auto;enable-background:accumulate;stop-color:#000000;stop-opacity:1"
     d="m 291.587,189.687 -38.895,-38.894 c -7.717,-7.717 -21.766,-13.535 -32.677,-13.535 h -102 c -13.785,0 -25,11.215 -25,25 v 3 c 0,13.785 11.215,25 25,25 h 26.857 l -5.322,5.322 c -3.635,3.635 -11.878,6.386 -16.971,5.657 l -85.8,-12.257 c -11.286,-1.613 -24.866,2.239 -31.584,8.957 -4.174,4.174 -5.958,9.734 -4.894,15.254 1.248,6.48 6.191,12.009 13.564,15.168 l 87.925,37.682 c 9.627,4.126 24.546,5.32 34.704,2.781 l 36.896,-9.225 c 8.631,-2.158 21.762,-6.676 29.894,-10.286 l 9.745,-4.326 c 3.603,-1.599 9.748,-0.316 12.408,2.589 l 35.204,38.438 c 1.973,2.154 4.671,3.246 7.378,3.246 2.412,0 4.832,-0.868 6.751,-2.625 4.073,-3.73 4.351,-10.057 0.621,-14.129 l -35.205,-38.438 c -8.403,-9.176 -23.897,-12.408 -35.272,-7.36 l -9.745,4.326 c -7.002,3.108 -19.197,7.305 -26.63,9.163 l -36.896,9.225 c -5.906,1.477 -16.378,0.636 -21.974,-1.762 L 22.467,210.286 c 3.061,-1.206 7.561,-2.065 11.486,-1.507 l 85.801,12.258 c 11.289,1.618 25.88,-3.252 33.94,-11.313 l 11.787,-11.787 c 8.213,-8.213 6.409,-15.596 5.252,-18.389 -1.157,-2.793 -5.102,-9.289 -16.717,-9.289 h -36 c -2.71,0 -5,-2.29 -5,-5 v -3 c 0,-2.71 2.29,-5 5,-5 h 102 c 5.58,0 14.589,3.731 18.535,7.678 l 38.893,38.894 c 3.906,3.904 10.236,3.904 14.143,0 3.905,-3.907 3.905,-10.239 0,-14.144 z"
     id="path206" /><path
     style="color:#000000;font-style:normal;font-variant:normal;font-weight:normal;font-stretch:normal;font-size:medium;line-height:normal;font-family:sans-serif;font-variant-ligatures:normal;font-variant-position:normal;font-variant-caps:normal;font-variant-numeric:normal;font-variant-alternates:normal;font-variant-east-asian:normal;font-feature-settings:normal;font-variation-settings:normal;text-indent:0;text-align:start;text-decoration:none;text-decoration-line:none;text-decoration-style:solid;text-decoration-color:#000000;letter-spacing:normal;word-spacing:normal;text-transform:none;writing-mode:lr-tb;direction:ltr;text-orientation:mixed;dominant-baseline:auto;baseline-shift:baseline;text-anchor:start;white-space:normal;shape-padding:0;shape-margin:0;inline-size:0;clip-rule:nonzero;display:inline;overflow:visible;visibility:visible;isolation:auto;mix-blend-mode:normal;color-interpolation:sRGB;color-interpolation-filters:linearRGB;solid-color:#000000;solid-opacity:1;vector-effect:none;fill-opacity:1;fill-rule:nonzero;stroke:none;stroke-width:1;stroke-linecap:butt;stroke-linejoin:miter;stroke-miterlimit:4;stroke-dasharray:none;stroke-dashoffset:0;stroke-opacity:1;color-rendering:auto;image-rendering:auto;shape-rendering:auto;text-rendering:auto;enable-background:accumulate;stop-color:#000000;stop-opacity:1;fill:#373266"
     d="m 118.01562,136.75781 c -14.05618,0 -25.499995,11.44381 -25.499995,25.5 v 3 c 0,14.05619 11.443815,25.5 25.499995,25.5 h 25.64844 l -4.46679,4.46875 c -1.72848,1.72847 -4.64714,3.31101 -7.74415,4.34375 -3.097,1.03275 -6.38101,1.51852 -8.80273,1.17188 L 36.849609,188.48438 c -11.451981,-1.63673 -25.119158,2.21095 -32.0078121,9.0996 -4.28061379,4.28062 -6.1267196,10.01791 -5.03125002,15.70118 1.28437832,6.66888 6.36465362,12.32288 13.85742212,15.5332 L 101.59375,266.5 c 9.76681,4.18592 24.71597,5.38251 35.02148,2.80664 l 36.89649,-9.22461 c 8.67454,-2.16889 21.80157,-6.68623 29.97461,-10.31445 l 9.74609,-4.32617 c 1.65985,-0.73664 4.01206,-0.8288 6.25196,-0.36133 2.23989,0.46746 4.35873,1.49392 5.58398,2.83203 l 35.20312,38.4375 c 2.0695,2.25935 4.90659,3.4082 7.74805,3.4082 2.53196,0 5.07497,-0.91286 7.08789,-2.75586 4.27233,-3.91254 4.56495,-10.56458 0.65235,-14.83593 l -35.20508,-38.4375 c -8.57025,-9.35864 -24.24256,-12.62885 -35.84375,-7.48047 l -9.74414,4.32617 c -6.9578,3.08838 -19.16287,7.28852 -26.54883,9.13476 l -36.89649,9.22657 c -5.72771,1.43241 -16.22892,0.58939 -21.65625,-1.73633 L 24.001953,210.40039 c 2.897883,-0.93646 6.563261,-1.5986 9.880859,-1.12695 l 85.800778,12.25781 c 11.48838,1.64658 26.16115,-3.24997 34.36329,-11.45313 l 11.7871,-11.7871 c 8.34483,-8.34483 6.56724,-16.02255 5.36133,-18.9336 -1.20589,-2.91102 -5.37826,-9.59765 -17.17969,-9.59765 h -36 c -2.42832,0 -4.5,-2.07168 -4.5,-4.5 v -3 c 0,-2.42833 2.07168,-4.5 4.5,-4.5 h 102 c 2.67857,0 6.29058,0.91246 9.68946,2.32031 3.39887,1.40785 6.59801,3.31628 8.49219,5.21094 l 38.89257,38.89453 c 4.09704,4.09494 10.7516,4.09486 14.84961,0 h 0.002 v -0.002 c 4.09595,-4.09804 4.09609,-10.75351 0,-14.84961 l -38.89649,-38.89453 c -7.8427,-7.8427 -21.94055,-13.68164 -33.0293,-13.68164 z m 0,1 h 102 c 10.73326,0 24.73097,5.79738 32.32227,13.38867 l 38.89649,38.89454 c 3.7139,3.7139 3.71209,9.71959 -0.002,13.43554 -3.71608,3.71194 -9.72098,3.71266 -13.43554,0 L 238.9043,164.58398 c -2.05182,-2.05234 -5.32928,-3.98333 -8.81641,-5.42773 -3.48713,-1.4444 -7.17083,-2.39648 -10.07227,-2.39648 h -102 c -2.99167,0 -5.5,2.50832 -5.5,5.5 v 3 c 0,2.99167 2.50833,5.5 5.5,5.5 h 36 c 11.42858,0 15.14775,6.30548 16.25586,8.98046 1.1081,2.67495 2.93665,9.76258 -5.14453,17.84375 l -11.78711,11.78711 c -7.91786,7.91885 -22.42599,12.7613 -33.51562,11.17188 L 34.023438,208.2832 c -4.048519,-0.57556 -8.599079,0.29953 -11.740235,1.53711 l -1.130859,0.44531 88.320316,37.85157 c 5.76467,2.47028 16.20672,3.30869 22.29101,1.78711 l 36.89649,-9.22461 c 7.48003,-1.86976 19.66473,-6.06379 26.71093,-9.19141 l 9.7461,-4.32617 c 11.1488,-4.94762 26.46347,-1.75118 34.69922,7.24219 l 35.20507,38.4375 c 3.5474,3.87265 3.28383,9.87442 -0.58984,13.42187 -1.82507,1.67101 -4.12006,2.49414 -6.41211,2.49414 -2.57253,0 -5.13326,-1.03533 -7.00976,-3.08398 l -35.20313,-38.4375 c -1.43475,-1.5669 -3.71884,-2.63423 -6.11719,-3.13477 -2.39835,-0.50053 -4.92013,-0.43658 -6.86328,0.42578 l -9.74414,4.32618 c -8.09096,3.59178 -21.22504,8.1107 -29.8125,10.25781 l -36.89648,9.22656 c -10.01049,2.50213 -24.89953,1.31022 -34.38672,-2.75586 L 14.0625,227.90039 v -0.002 C 6.8092683,224.79075 2.0026373,219.38682 0.79101562,213.0957 -0.24151476,207.73897 1.4814419,202.3584 5.5488281,198.29102 12.096174,191.74367 25.588966,187.88533 36.708984,189.47461 l 85.798826,12.25781 c 2.67128,0.38236 6.05523,-0.14363 9.26172,-1.21289 3.20649,-1.06925 6.22824,-2.67941 8.13477,-4.58594 l 6.17578,-6.17578 h -28.06446 c -13.51381,0 -24.499995,-10.98619 -24.499995,-24.5 v -3 c 0,-13.51381 10.986185,-24.5 24.499995,-24.5 z"
     id="path208" /></g>
	<g
   id="g210"
   style="opacity:1;fill:#373266;fill-opacity:1"><path
     style="color:#000000;font-style:normal;font-variant:normal;font-weight:normal;font-stretch:normal;font-size:medium;line-height:normal;font-family:sans-serif;font-variant-ligatures:normal;font-variant-position:normal;font-variant-caps:normal;font-variant-numeric:normal;font-variant-alternates:normal;font-variant-east-asian:normal;font-feature-settings:normal;font-variation-settings:normal;text-indent:0;text-align:start;text-decoration:none;text-decoration-line:none;text-decoration-style:solid;text-decoration-color:#000000;letter-spacing:normal;word-spacing:normal;text-transform:none;writing-mode:lr-tb;direction:ltr;text-orientation:mixed;dominant-baseline:auto;baseline-shift:baseline;text-anchor:start;white-space:normal;shape-padding:0;shape-margin:0;inline-size:0;clip-rule:nonzero;display:inline;overflow:visible;visibility:visible;isolation:auto;mix-blend-mode:normal;color-interpolation:sRGB;color-interpolation-filters:linearRGB;solid-color:#000000;solid-opacity:1;vector-effect:none;fill:#373266;fill-opacity:1;fill-rule:nonzero;stroke:none;stroke-width:1;stroke-linecap:butt;stroke-linejoin:miter;stroke-miterlimit:4;stroke-dasharray:none;stroke-dashoffset:0;stroke-opacity:1;color-rendering:auto;image-rendering:auto;shape-rendering:auto;text-rendering:auto;enable-background:accumulate;stop-color:#000000;stop-opacity:1"
     d="m 38.934,92.758 c 0.562,0 1.118,-0.023 1.672,-0.059 -1.406,4.673 -2.172,9.62 -2.172,14.744 0,20.592 13.636,22.815 19.499,22.815 4.354,0 9.017,-1.002 13.953,-2.063 5.459,-1.173 11.646,-2.502 17.799,-2.502 6.153,0 12.339,1.329 17.797,2.502 4.936,1.06 9.599,2.063 13.952,2.063 h 0.003 c 5.862,0 19.497,-2.225 19.497,-22.815 0,-5.124 -0.765,-10.071 -2.172,-14.744 0.554,0.035 1.11,0.059 1.672,0.059 14.612,0 26.5,-11.888 26.5,-26.5 0,-13.455 -10.323,-33 -26.5,-33 -14.702,0 -24.566,16.143 -26.244,29.186 -2.67,-1.459 -5.487,-2.678 -8.417,-3.648 6.323,-4.848 10.411,-12.473 10.411,-21.037 0,-13.251 -10.323,-32.5 -26.5,-32.5 -16.177,0 -26.5,19.249 -26.5,32.5 0,8.565 4.088,16.189 10.411,21.037 -2.93,0.972 -5.747,2.189 -8.417,3.649 C 63.5,49.401 53.636,33.258 38.934,33.258 c -16.177,0 -26.5,19.545 -26.5,33 0,14.612 11.887,26.5 26.5,26.5 z M 140.434,53.3 c 2.309,0.926 6.5,7.938 6.5,12.958 0,3.584 -2.916,6.5 -6.5,6.5 -3.584,0 -6.5,-2.916 -6.5,-6.5 0,-5.02 4.191,-12.032 6.5,-12.958 z M 89.684,25.276 c 2.064,0.626 6.5,7.176 6.5,12.482 0,3.584 -2.916,6.5 -6.5,6.5 -3.584,0 -6.5,-2.916 -6.5,-6.5 0,-5.307 4.435,-11.856 6.5,-12.482 z m 31.25,84.963 c -2.253,-0.127 -5.744,-0.843 -9.251,-1.597 -6.112,-1.313 -13.721,-2.948 -21.998,-2.948 -8.277,0 -15.887,1.635 -22,2.948 -3.507,0.754 -6.998,1.469 -9.251,1.597 0,-17.231 14.02,-34.045 31.251,-34.045 17.23,0 31.249,16.813 31.249,34.045 z m -82,-56.939 c 2.309,0.926 6.5,7.938 6.5,12.958 0,3.584 -2.916,6.5 -6.5,6.5 -3.584,0 -6.5,-2.916 -6.5,-6.5 0,-5.02 4.191,-12.032 6.5,-12.958 z"
     id="path212" /><path
     style="color:#000000;font-style:normal;font-variant:normal;font-weight:normal;font-stretch:normal;font-size:medium;line-height:normal;font-family:sans-serif;font-variant-ligatures:normal;font-variant-position:normal;font-variant-caps:normal;font-variant-numeric:normal;font-variant-alternates:normal;font-variant-east-asian:normal;font-feature-settings:normal;font-variation-settings:normal;text-indent:0;text-align:start;text-decoration:none;text-decoration-line:none;text-decoration-style:solid;text-decoration-color:#000000;letter-spacing:normal;word-spacing:normal;text-transform:none;writing-mode:lr-tb;direction:ltr;text-orientation:mixed;dominant-baseline:auto;baseline-shift:baseline;text-anchor:start;white-space:normal;shape-padding:0;shape-margin:0;inline-size:0;clip-rule:nonzero;display:inline;overflow:visible;visibility:visible;isolation:auto;mix-blend-mode:normal;color-interpolation:sRGB;color-interpolation-filters:linearRGB;solid-color:#000000;solid-opacity:1;vector-effect:none;fill-opacity:1;fill-rule:nonzero;stroke:none;stroke-width:1;stroke-linecap:butt;stroke-linejoin:miter;stroke-miterlimit:4;stroke-dasharray:none;stroke-dashoffset:0;stroke-opacity:1;color-rendering:auto;image-rendering:auto;shape-rendering:auto;text-rendering:auto;enable-background:accumulate;stop-color:#000000;stop-opacity:1;fill:#373266"
     d="m 89.683594,4.7597656 c -8.286817,0 -15.056299,4.9323944 -19.722656,11.4902344 -4.666358,6.55784 -7.277344,14.754426 -7.277344,21.509766 0,8.435713 3.948412,15.922437 10.029297,20.876953 -2.477474,0.862943 -4.875865,1.891416 -7.167969,3.105469 -0.95008,-6.453723 -3.778087,-13.526296 -8.212891,-19.09375 -4.579131,-5.748644 -10.864435,-9.890626 -18.398437,-9.890626 -8.289866,0 -15.059215,5.010631 -19.72461,11.667969 -4.665394,6.657338 -7.27539,14.976661 -7.27539,21.832031 0,14.88317 12.115826,27.000001 27,27 0.35277,0 0.697859,-0.02186 1.044922,-0.03711 -1.297945,4.526342 -2.044922,9.285648 -2.044922,14.222658 0,10.40637 3.480287,16.30099 7.75,19.52734 4.269713,3.22635 9.255307,3.78711 12.25,3.78711 4.430711,0 9.12062,-1.01321 14.05664,-2.07422 5.458976,-1.17299 11.61431,-2.49023 17.695313,-2.49023 6.081002,0 12.233433,1.31724 17.691403,2.49023 4.9359,1.05998 9.62684,2.07422 14.05664,2.07422 h 0.004 c 2.99426,0 7.97873,-0.56051 12.24805,-3.78711 4.26931,-3.2266 7.74804,-9.12197 7.74804,-19.52734 0,-4.93696 -0.74614,-9.696197 -2.04492,-14.222658 0.34715,0.01533 0.69139,0.03711 1.04492,0.03711 14.8832,0 27,-12.116807 27,-27 0,-6.85537 -2.60804,-15.174693 -7.27343,-21.832031 -4.6654,-6.657338 -11.4367,-11.667968 -19.72657,-11.667969 -7.534,10e-7 -13.81735,4.142109 -18.39648,9.890626 -4.43486,5.567397 -7.2648,12.640429 -8.21484,19.09375 -2.29141,-1.213165 -4.68887,-2.24371 -7.16602,-3.105469 6.08082,-4.954594 10.02734,-12.442256 10.02734,-20.876953 0,-6.75534 -2.60903,-14.951926 -7.27539,-21.509766 C 104.74185,9.69216 97.97041,4.7597656 89.683594,4.7597656 Z m 0,1 c 7.890183,0 14.370766,4.6909024 18.910156,11.0703124 4.53939,6.37941 7.08984,14.434027 7.08984,20.929688 0,8.404884 -4.01016,15.881387 -10.21484,20.638672 l -0.75,0.576171 0.89648,0.296875 c 2.90213,0.960771 5.69297,2.167096 8.33594,3.611328 l 0.64063,0.351563 0.0937,-0.726563 c 0.82651,-6.424413 3.68494,-13.652594 8.13281,-19.236328 4.44787,-5.583733 10.44724,-9.513672 17.61523,-9.513672 7.88714,0 14.36785,4.763276 18.90821,11.242188 4.54035,6.478912 7.09179,14.658183 7.09179,21.257812 0,14.340808 -11.65919,26.000001 -26,26 -0.54776,0 -1.09328,-0.02401 -1.64062,-0.05859 l -0.7168,-0.04492 0.20703,0.689453 c 1.39334,4.627628 2.15039,9.525385 2.15039,14.599615 0,10.18463 -3.33787,15.69706 -7.35156,18.73046 -4.01368,3.0334 -8.77679,3.58398 -11.64453,3.58398 h -0.004 c -4.27619,0 -8.9096,-0.99076 -13.8457,-2.05078 -5.45803,-1.173 -11.677346,-2.51367 -17.902343,-2.51367 -6.224998,0 -12.445273,1.34067 -17.904297,2.51367 -4.93598,1.061 -9.570367,2.05078 -13.847656,2.05078 -2.868307,0 -7.632448,-0.55083 -11.646485,-3.58398 -4.014036,-3.03315 -7.353515,-8.54483 -7.353515,-18.73046 0,-5.07417 0.758005,-9.971866 2.15039,-14.599615 l 0.208985,-0.689453 -0.71875,0.04492 c -0.54615,0.03549 -1.092267,0.05859 -1.640625,0.05859 -14.341826,0 -26,-11.659169 -26,-26 0,-6.599629 2.553394,-14.7789 7.09375,-21.257812 4.540355,-6.478912 11.019116,-11.242187 18.90625,-11.242188 7.167997,0 13.167366,3.929816 17.615234,9.513672 4.447869,5.583857 7.306301,12.813363 8.132813,19.238282 l 0.09375,0.724609 0.642578,-0.351563 c 2.642731,-1.445088 5.431463,-2.648443 8.333984,-3.611328 l 0.896485,-0.298828 -0.75,-0.574218 C 67.693727,53.641133 63.683594,46.165669 63.683594,37.759766 c 0,-6.495661 2.552404,-14.550278 7.091797,-20.929688 C 75.314783,10.450668 81.79341,5.7597656 89.683594,5.7597656 Z m 0,18.9941404 -0.144532,0.04297 c -0.70033,0.212304 -1.3772,0.795116 -2.113281,1.613281 -0.73608,0.818166 -1.500185,1.884983 -2.199219,3.101563 -1.398066,2.43316 -2.542968,5.453312 -2.542968,8.246093 0,3.855206 3.144794,7 7,7 3.855205,0 7,-3.144794 7,-7 0,-2.792339 -1.144788,-5.810876 -2.542969,-8.24414 -0.69909,-1.216632 -1.463203,-2.285286 -2.199219,-3.103516 -0.736016,-0.81823 -1.411179,-1.40093 -2.111328,-1.613281 z m 0,1.115235 c 0.351754,0.150237 0.898253,0.522651 1.515625,1.208984 0.676234,0.75177 1.408262,1.771226 2.076172,2.933594 1.335819,2.324735 2.408203,5.232433 2.408203,7.746093 0,3.312795 -2.687206,6 -6,6 -3.312795,0 -6,-2.687205 -6,-6 0,-2.514218 1.074473,-5.423457 2.410156,-7.748046 0.667842,-1.162295 1.397955,-2.179963 2.074219,-2.931641 0.617399,-0.686249 1.163623,-1.058724 1.515625,-1.208984 z m -50.75,26.892578 -0.185547,0.07422 c -0.73109,0.293195 -1.44449,0.954472 -2.189453,1.853515 -0.744964,0.899043 -1.499674,2.044496 -2.181641,3.318359 -1.363934,2.547728 -2.443359,5.600857 -2.443359,8.25 0,3.855206 3.144794,7 7,7 3.855205,0 7,-3.144794 7,-7 0,-2.649143 -1.079426,-5.702272 -2.44336,-8.25 -0.681966,-1.273863 -1.436677,-2.419316 -2.18164,-3.318359 -0.744964,-0.899043 -1.458363,-1.56032 -2.189453,-1.853515 z m 101.499996,0 -0.18554,0.07422 c -0.73109,0.293195 -1.44449,0.954472 -2.18946,1.853515 -0.74496,0.899043 -1.49967,2.044496 -2.18164,3.318359 -1.36393,2.547728 -2.44336,5.600857 -2.44336,8.25 0,3.855206 3.1448,7 7,7 3.85521,0 7,-3.144794 7,-7 0,-2.649143 -1.07942,-5.702272 -2.44336,-8.25 -0.68196,-1.273863 -1.43667,-2.419316 -2.18164,-3.318359 -0.74496,-0.899043 -1.45836,-1.56032 -2.18945,-1.853515 z M 38.933594,53.925781 c 0.424362,0.223816 0.986729,0.655632 1.605468,1.402344 0.690256,0.83302 1.415905,1.929957 2.070313,3.152344 1.308816,2.444772 2.324219,5.406487 2.324219,7.777343 0,3.312795 -2.687206,6.000001 -6,6 -3.312795,0 -6,-2.687205 -6,-6 0,-2.370856 1.017355,-5.332571 2.326172,-7.777343 0.654408,-1.222387 1.380057,-2.319324 2.070312,-3.152344 0.618695,-0.746659 1.179158,-1.1785 1.603516,-1.402344 z m 101.499996,0 c 0.42437,0.223816 0.98673,0.655632 1.60547,1.402344 0.69026,0.83302 1.41591,1.929957 2.07032,3.152344 1.30881,2.444772 2.32421,5.406487 2.32421,7.777343 0,3.312795 -2.6872,6.000001 -6,6 -3.31279,0 -6,-2.687205 -6,-6 0,-2.370856 1.01736,-5.332571 2.32618,-7.777343 0.6544,-1.222387 1.38005,-2.319324 2.07031,-3.152344 0.61869,-0.746659 1.17916,-1.1785 1.60351,-1.402344 z M 89.685547,75.693359 c -17.556267,0 -31.751953,17.042706 -31.751953,34.544921 v 0.5293 l 0.529297,-0.0293 c 2.328599,-0.13229 5.816736,-0.85291 9.326171,-1.60742 6.113024,-1.31301 13.68533,-2.9375 21.896485,-2.9375 8.211155,0 15.780553,1.62449 21.892573,2.9375 3.51007,0.75466 6.99868,1.47611 9.32813,1.60742 l 0.52734,0.0293 v -0.5293 c 0,-17.50318 -14.19278,-34.544921 -31.748043,-34.544921 z m 0,1 c 16.703923,0 30.363993,16.197074 30.687503,32.945311 -2.19002,-0.18342 -5.30531,-0.78142 -8.58399,-1.48633 h -0.002 c -6.11198,-1.31299 -13.758718,-2.95898 -22.101563,-2.95898 -8.342845,0 -15.992492,1.64599 -22.105469,2.95898 -3.279316,0.70505 -6.395608,1.30238 -8.585937,1.48633 0.323515,-16.747269 13.98649,-32.945311 30.691406,-32.945311 z"
     id="path214" /></g>
</g>
<g
   id="g149"
   transform="translate(-115.14943,-115.146)">
</g>
<g
   id="g151"
   transform="translate(-115.14943,-115.146)">
</g>
<g
   id="g153"
   transform="translate(-115.14943,-115.146)">
</g>
<g
   id="g155"
   transform="translate(-115.14943,-115.146)">
</g>
<g
   id="g157"
   transform="translate(-115.14943,-115.146)">
</g>
<g
   id="g159"
   transform="translate(-115.14943,-115.146)">
</g>
<g
   id="g161"
   transform="translate(-115.14943,-115.146)">
</g>
<g
   id="g163"
   transform="translate(-115.14943,-115.146)">
</g>
<g
   id="g165"
   transform="translate(-115.14943,-115.146)">
</g>
<g
   id="g167"
   transform="translate(-115.14943,-115.146)">
</g>
<g
   id="g169"
   transform="translate(-115.14943,-115.146)">
</g>
<g
   id="g171"
   transform="translate(-115.14943,-115.146)">
</g>
<g
   id="g173"
   transform="translate(-115.14943,-115.146)">
</g>
<g
   id="g175"
   transform="translate(-115.14943,-115.146)">
</g>
<g
   id="g177"
   transform="translate(-115.14943,-115.146)">
</g>
<path
   id="path7828"
   d="m 13.022494,23.08758 c 0.31904,-1.975614 0.964202,-3.396212 2.090613,-4.603368 1.487761,-1.594407 2.891918,-2.222569 4.78599,-2.141054 1.008508,0.0434 1.245424,0.101631 2.058479,0.505925 0.505342,0.251283 1.21077,0.714058 1.567618,1.02839 0.775162,0.682805 1.784509,2.150288 2.148948,3.124341 0.292072,0.780632 0.600237,2.378474 0.4816,2.497111 -0.04187,0.04187 -0.909131,-0.09462 -1.927255,-0.303302 -3.848444,-0.788809 -5.238012,-0.800382 -8.899866,-0.07413 -1.20078,0.23815 -2.227885,0.433207 -2.282457,0.43346 -0.05457,2.54e-4 -0.06522,-0.210066 -0.02367,-0.467375 z"
   style="fill:#e78b38;fill-opacity:1;stroke-width:0.124756" /><path
   id="path7830"
   d="m 30.334829,15.109255 c -0.452286,-0.08754 -0.908742,-0.735366 -0.908742,-1.289726 0,-0.656107 0.447341,-1.807387 0.888162,-2.285784 0.35587,-0.386202 0.363586,-0.388155 0.561414,-0.142072 0.746614,0.928731 1.151569,2.56563 0.781368,3.158417 -0.143983,0.230552 -0.8647,0.683349 -1.002235,0.629662 -0.02394,-0.0093 -0.167924,-0.04107 -0.319967,-0.0705 z"
   style="fill:#e78b38;fill-opacity:1;stroke-width:0.124756" /><path
   id="path7832"
   d="M 18.81859,8.3511284 C 18.338362,7.8708998 18.262601,7.483173 18.493677,6.6882989 18.68866,6.0175803 19.377644,4.8419653 19.575744,4.8419653 c 0.359085,0 1.242156,1.7706074 1.242156,2.4905948 0,1.1815941 -1.216517,1.8013608 -1.99931,1.0185683 z"
   style="fill:#e78b38;fill-opacity:1;stroke-width:0.124756" /><path
   id="path7834"
   d="M 8.1333585,15.01368 C 7.5249763,14.750622 7.2962996,14.309812 7.3840138,13.569203 c 0.1036407,-0.875084 0.8783629,-2.364665 1.2298481,-2.364665 0.1922238,0 0.8556087,1.165844 1.0575816,1.858612 0.1588905,0.544996 0.1688459,0.765174 0.052201,1.154501 -0.2219989,0.740966 -0.9151745,1.087941 -1.590286,0.796029 z"
   style="fill:#e78b38;fill-opacity:1;stroke-width:0.124756" /></svg>
