<?xml version="1.0" encoding="UTF-8" standalone="no"?>
<svg
   xmlns:dc="http://purl.org/dc/elements/1.1/"
   xmlns:cc="http://creativecommons.org/ns#"
   xmlns:rdf="http://www.w3.org/1999/02/22-rdf-syntax-ns#"
   xmlns:svg="http://www.w3.org/2000/svg"
   xmlns="http://www.w3.org/2000/svg"
   xmlns:sodipodi="http://sodipodi.sourceforge.net/DTD/sodipodi-0.dtd"
   xmlns:inkscape="http://www.inkscape.org/namespaces/inkscape"
   inkscape:version="1.0 (1.0+r73+1)"
   height="64"
   width="64"
   sodipodi:docname="charity-education.svg"
   xml:space="preserve"
   viewBox="0 0 64.000002 64.000002"
   y="0px"
   x="0px"
   id="Capa_1"
   version="1.1"><metadata
   id="metadata3959"><rdf:RDF><cc:Work
       rdf:about=""><dc:format>image/svg+xml</dc:format><dc:type
         rdf:resource="http://purl.org/dc/dcmitype/StillImage" /></cc:Work></rdf:RDF></metadata><defs
   id="defs3957" /><sodipodi:namedview
   inkscape:current-layer="Capa_1"
   inkscape:window-maximized="1"
   inkscape:window-y="0"
   inkscape:window-x="0"
   inkscape:cy="112.97734"
   inkscape:cx="-71.080381"
   inkscape:zoom="1.8674708"
   showgrid="false"
   id="namedview3955"
   inkscape:window-height="1043"
   inkscape:window-width="1920"
   inkscape:pageshadow="2"
   inkscape:pageopacity="0"
   guidetolerance="10"
   gridtolerance="10"
   objecttolerance="10"
   borderopacity="1"
   bordercolor="#666666"
   pagecolor="#ffffff" />
<g
   style="fill:#373266;fill-opacity:1"
   transform="matrix(0.21730573,0,0,0.22535132,3.9943568e-5,-1.1848972)"
   id="g3922">
	<path
   style="fill:#373266;fill-opacity:1"
   id="path3918"
   d="m 291.587,189.687 -38.895,-38.894 c -7.717,-7.717 -21.766,-13.535 -32.677,-13.535 h -102 c -13.785,0 -25,11.215 -25,25 v 3 c 0,13.785 11.215,25 25,25 h 26.857 l -5.322,5.322 c -3.634,3.635 -11.881,6.378 -16.971,5.657 l -85.8,-12.257 c -11.29,-1.611 -24.866,2.239 -31.584,8.957 -4.174,4.174 -5.958,9.734 -4.894,15.254 1.248,6.48 6.191,12.009 13.564,15.168 l 87.925,37.682 c 9.628,4.127 24.547,5.321 34.704,2.781 l 36.896,-9.225 c 8.631,-2.158 21.762,-6.676 29.894,-10.286 l 9.745,-4.326 c 3.601,-1.599 9.748,-0.316 12.408,2.589 l 35.204,38.439 c 1.973,2.154 4.671,3.246 7.378,3.246 2.412,0 4.832,-0.868 6.751,-2.625 4.073,-3.73 4.351,-10.057 0.621,-14.129 l -35.205,-38.438 c -8.403,-9.176 -23.897,-12.408 -35.272,-7.36 l -9.745,4.326 c -7.002,3.108 -19.197,7.305 -26.63,9.163 l -36.896,9.225 c -5.906,1.477 -16.378,0.636 -21.974,-1.762 L 22.467,210.287 c 3.062,-1.205 7.559,-2.066 11.486,-1.507 l 85.801,12.258 c 11.292,1.619 25.879,-3.252 33.94,-11.314 l 11.787,-11.787 c 8.213,-8.213 6.409,-15.596 5.252,-18.389 -1.157,-2.793 -5.102,-9.289 -16.717,-9.289 h -36 c -2.71,0 -5,-2.29 -5,-5 v -3 c 0,-2.71 2.29,-5 5,-5 h 102 c 5.58,0 14.589,3.731 18.535,7.678 l 38.893,38.894 c 3.906,3.904 10.236,3.904 14.143,0 3.905,-3.907 3.905,-10.239 0,-14.144 z" />
	<path
   style="fill:#373266;fill-opacity:1"
   id="path3920"
   d="m 20.517,25.258 h 6.5 v 56 c 0,5.522 4.477,10 10,10 5.522,0 10,-4.478 10,-10 v -56 h 13 v 89 c 0,5.522 4.477,10 10,10 h 132 c 5.522,0 10,-4.478 10,-10 v -89 h 39.5 c 5.522,0 10,-4.477 10,-10 0,-5.523 -4.478,-10 -10,-10 h -231 c -5.523,0 -10,4.478 -10,10 0,5.522 4.477,10 10,10 z m 171.5,79 h -112 v -79 h 112 z" />
</g>
<g
   transform="translate(-115.25778,-115.2585)"
   id="g3924">
</g>
<g
   transform="translate(-115.25778,-115.2585)"
   id="g3926">
</g>
<g
   transform="translate(-115.25778,-115.2585)"
   id="g3928">
</g>
<g
   transform="translate(-115.25778,-115.2585)"
   id="g3930">
</g>
<g
   transform="translate(-115.25778,-115.2585)"
   id="g3932">
</g>
<g
   transform="translate(-115.25778,-115.2585)"
   id="g3934">
</g>
<g
   transform="translate(-115.25778,-115.2585)"
   id="g3936">
</g>
<g
   transform="translate(-115.25778,-115.2585)"
   id="g3938">
</g>
<g
   transform="translate(-115.25778,-115.2585)"
   id="g3940">
</g>
<g
   transform="translate(-115.25778,-115.2585)"
   id="g3942">
</g>
<g
   transform="translate(-115.25778,-115.2585)"
   id="g3944">
</g>
<g
   transform="translate(-115.25778,-115.2585)"
   id="g3946">
</g>
<g
   transform="translate(-115.25778,-115.2585)"
   id="g3948">
</g>
<g
   transform="translate(-115.25778,-115.2585)"
   id="g3950">
</g>
<g
   transform="translate(-115.25778,-115.2585)"
   id="g3952">
</g>
<path
   id="path4538"
   d="M 17.542158,13.377383 V 4.8096452 h 12.048381 12.048382 v 8.5677378 8.567738 H 29.590539 17.542158 Z"
   style="fill:#e78b38;fill-opacity:1;stroke-width:0.535484" /></svg>
