<?xml version="1.0" encoding="UTF-8" standalone="no"?>
<svg
   xmlns:dc="http://purl.org/dc/elements/1.1/"
   xmlns:cc="http://creativecommons.org/ns#"
   xmlns:rdf="http://www.w3.org/1999/02/22-rdf-syntax-ns#"
   xmlns:svg="http://www.w3.org/2000/svg"
   xmlns="http://www.w3.org/2000/svg"
   xmlns:sodipodi="http://sodipodi.sourceforge.net/DTD/sodipodi-0.dtd"
   xmlns:inkscape="http://www.inkscape.org/namespaces/inkscape"
   version="1.1"
   id="Capa_1"
   x="0px"
   y="0px"
   viewBox="0 0 64 64"
   xml:space="preserve"
   sodipodi:docname="clothes-donation.svg"
   width="64"
   height="64"
   inkscape:version="1.0 (1.0+r73+1)"><metadata
   id="metadata3260"><rdf:RDF><cc:Work
       rdf:about=""><dc:format>image/svg+xml</dc:format><dc:type
         rdf:resource="http://purl.org/dc/dcmitype/StillImage" /></cc:Work></rdf:RDF></metadata><defs
   id="defs3258" /><sodipodi:namedview
   inkscape:document-rotation="0"
   pagecolor="#ffffff"
   bordercolor="#666666"
   borderopacity="1"
   objecttolerance="10"
   gridtolerance="10"
   guidetolerance="10"
   inkscape:pageopacity="0"
   inkscape:pageshadow="2"
   inkscape:window-width="1920"
   inkscape:window-height="1043"
   id="namedview3256"
   showgrid="false"
   inkscape:zoom="1.8518519"
   inkscape:cx="-71.950096"
   inkscape:cy="31.999999"
   inkscape:window-x="0"
   inkscape:window-y="0"
   inkscape:window-maximized="1"
   inkscape:current-layer="Capa_1" />
<g
   id="g3223"
   transform="matrix(0.21548834,0,0,0.27186149,-3.8950157e-5,-8.3714309)"
   style="fill:#373266;fill-opacity:1">
	<g
   id="g3823"
   style="opacity:1"><path
     style="color:#000000;font-style:normal;font-variant:normal;font-weight:normal;font-stretch:normal;font-size:medium;line-height:normal;font-family:sans-serif;font-variant-ligatures:normal;font-variant-position:normal;font-variant-caps:normal;font-variant-numeric:normal;font-variant-alternates:normal;font-variant-east-asian:normal;font-feature-settings:normal;font-variation-settings:normal;text-indent:0;text-align:start;text-decoration:none;text-decoration-line:none;text-decoration-style:solid;text-decoration-color:#000000;letter-spacing:normal;word-spacing:normal;text-transform:none;writing-mode:lr-tb;direction:ltr;text-orientation:mixed;dominant-baseline:auto;baseline-shift:baseline;text-anchor:start;white-space:normal;shape-padding:0;shape-margin:0;inline-size:0;clip-rule:nonzero;display:inline;overflow:visible;visibility:visible;isolation:auto;mix-blend-mode:normal;color-interpolation:sRGB;color-interpolation-filters:linearRGB;solid-color:#000000;solid-opacity:1;vector-effect:none;fill:#373266;fill-opacity:1;fill-rule:nonzero;stroke-width:1;stroke-linecap:butt;stroke-linejoin:miter;stroke-miterlimit:4;stroke-dasharray:none;stroke-dashoffset:0;stroke-opacity:1.0;color-rendering:auto;image-rendering:auto;shape-rendering:auto;text-rendering:auto;enable-background:accumulate;stop-color:#000000;stop-opacity:1;stroke:none;"
     d="m 173.694,118.547 c -9.872,0 -18.805,4.112 -25.192,10.725 -6.388,-6.612 -15.321,-10.725 -25.194,-10.725 -19.373,0 -35.133,15.834 -35.133,35.298 0,31.663 49.664,61.522 55.326,64.822 1.546,0.901 3.273,1.352 5.002,1.352 1.729,0 3.456,-0.45 5.002,-1.352 5.662,-3.301 55.32,-33.16 55.32,-64.822 0,-19.464 -15.759,-35.298 -35.131,-35.298 z m -25.191,79.889 c -18.239,-11.695 -40.462,-31.291 -40.462,-44.591 0,-8.509 6.849,-15.433 15.267,-15.433 8.416,0 15.262,6.924 15.262,15.433 0,5.485 4.448,9.934 9.934,9.934 5.485,0 9.934,-4.448 9.934,-9.934 0,-8.509 6.844,-15.433 15.258,-15.433 8.417,0 15.265,6.924 15.265,15.433 -0.002,13.3 -22.222,32.895 -40.458,44.591 z"
     id="path3825" /><path
     style="color:#000000;font-style:normal;font-variant:normal;font-weight:normal;font-stretch:normal;font-size:medium;line-height:normal;font-family:sans-serif;font-variant-ligatures:normal;font-variant-position:normal;font-variant-caps:normal;font-variant-numeric:normal;font-variant-alternates:normal;font-variant-east-asian:normal;font-feature-settings:normal;font-variation-settings:normal;text-indent:0;text-align:start;text-decoration:none;text-decoration-line:none;text-decoration-style:solid;text-decoration-color:#000000;letter-spacing:normal;word-spacing:normal;text-transform:none;writing-mode:lr-tb;direction:ltr;text-orientation:mixed;dominant-baseline:auto;baseline-shift:baseline;text-anchor:start;white-space:normal;shape-padding:0;shape-margin:0;inline-size:0;clip-rule:nonzero;display:inline;overflow:visible;visibility:visible;isolation:auto;mix-blend-mode:normal;color-interpolation:sRGB;color-interpolation-filters:linearRGB;solid-color:#000000;solid-opacity:1;vector-effect:none;fill-opacity:1;fill-rule:nonzero;stroke-width:1;stroke-linecap:butt;stroke-linejoin:miter;stroke-miterlimit:4;stroke-dasharray:none;stroke-dashoffset:0;stroke-opacity:1.0;color-rendering:auto;image-rendering:auto;shape-rendering:auto;text-rendering:auto;enable-background:accumulate;stop-color:#000000;stop-opacity:1;stroke:none;"
     d="M 123.30859 118.04688 C 103.66315 118.04688 87.675781 134.1118 87.675781 153.8457 C 87.675781 169.93862 100.21359 185.3893 113.38086 197.26367 C 126.54813 209.13804 140.40166 217.43951 143.25 219.09961 C 144.87324 220.04563 146.68796 220.51953 148.50391 220.51953 C 150.31907 220.51953 152.13279 220.04619 153.75586 219.09961 C 156.60409 217.43906 170.45728 209.13609 183.62305 197.26172 C 196.78881 185.38735 209.32422 169.9381 209.32422 153.8457 C 209.32422 134.11182 193.33781 118.04688 173.69336 118.04688 C 163.85183 118.04688 154.95487 122.10928 148.50195 128.61719 C 142.04812 122.11022 133.15116 118.04688 123.30859 118.04688 z M 123.30859 119.04688 C 133.04273 119.04688 141.84443 123.10014 148.14258 129.61914 L 148.50195 129.99219 L 148.86133 129.61914 C 155.15844 123.09921 163.9602 119.04687 173.69336 119.04688 C 192.7929 119.04688 208.32422 134.65159 208.32422 153.8457 C 208.32422 169.41531 196.03186 184.72365 182.95312 196.51953 C 169.87439 208.31541 156.06768 216.59392 153.25391 218.23438 C 151.78538 219.09118 150.14615 219.51953 148.50391 219.51953 C 146.86185 219.51953 145.22071 219.09036 143.75195 218.23438 C 140.93829 216.59448 127.12906 208.31736 114.04883 196.52148 C 100.9686 184.72561 88.675781 169.41578 88.675781 153.8457 C 88.675781 134.6516 104.20803 119.04688 123.30859 119.04688 z M 123.30859 137.91211 C 114.61642 137.91211 107.54102 145.0684 107.54102 153.8457 C 107.54102 160.77419 113.20181 169.03076 121.07422 177.0918 C 128.94663 185.15284 139.08378 192.99123 148.23242 198.85742 L 148.50391 199.0293 L 148.77344 198.85742 C 157.92057 192.99074 168.05621 185.15271 175.92773 177.0918 C 183.79926 169.03089 189.4599 160.77411 189.46094 153.8457 C 189.46094 145.06844 182.38652 137.91211 173.69531 137.91211 C 165.00701 137.91211 157.9375 145.06859 157.9375 153.8457 C 157.9375 159.06138 153.71859 163.2793 148.50391 163.2793 C 143.28823 163.2793 139.07031 159.06039 139.07031 153.8457 C 139.07031 145.06852 131.99883 137.91211 123.30859 137.91211 z M 123.30859 138.91211 C 131.45035 138.91211 138.07031 145.60489 138.07031 153.8457 C 138.07031 159.60102 142.74758 164.2793 148.50391 164.2793 C 154.25922 164.2793 158.9375 159.60203 158.9375 153.8457 C 158.9375 145.60481 165.55562 138.91211 173.69531 138.91211 C 181.83811 138.91211 188.46094 145.60497 188.46094 153.8457 C 188.45998 160.21729 183.01087 168.40699 175.21289 176.39258 C 167.49017 184.3011 157.52198 192.01156 148.50195 197.82227 C 139.48078 192.01214 129.51424 184.30085 121.79102 176.39258 C 113.99217 168.40687 108.54102 160.21722 108.54102 153.8457 C 108.54102 145.60501 115.16477 138.91211 123.30859 138.91211 z "
     id="path3827" /></g>
	<g
   id="g3829"
   style="opacity:1"><path
     style="color:#000000;font-style:normal;font-variant:normal;font-weight:normal;font-stretch:normal;font-size:medium;line-height:normal;font-family:sans-serif;font-variant-ligatures:normal;font-variant-position:normal;font-variant-caps:normal;font-variant-numeric:normal;font-variant-alternates:normal;font-variant-east-asian:normal;font-feature-settings:normal;font-variation-settings:normal;text-indent:0;text-align:start;text-decoration:none;text-decoration-line:none;text-decoration-style:solid;text-decoration-color:#000000;letter-spacing:normal;word-spacing:normal;text-transform:none;writing-mode:lr-tb;direction:ltr;text-orientation:mixed;dominant-baseline:auto;baseline-shift:baseline;text-anchor:start;white-space:normal;shape-padding:0;shape-margin:0;inline-size:0;clip-rule:nonzero;display:inline;overflow:visible;visibility:visible;isolation:auto;mix-blend-mode:normal;color-interpolation:sRGB;color-interpolation-filters:linearRGB;solid-color:#000000;solid-opacity:1;vector-effect:none;fill:#373266;fill-opacity:1;fill-rule:nonzero;stroke-width:1;stroke-linecap:butt;stroke-linejoin:miter;stroke-miterlimit:4;stroke-dasharray:none;stroke-dashoffset:0;stroke-opacity:1.0;color-rendering:auto;image-rendering:auto;shape-rendering:auto;text-rendering:auto;enable-background:accumulate;stop-color:#000000;stop-opacity:1;stroke:none;"
     d="M 295.951,128.662 249.763,36.284 c -1.684,-3.366 -5.122,-5.491 -8.885,-5.491 H 194.69 c -5.486,0 -9.934,4.447 -9.934,9.933 0,19.991 -16.265,36.256 -36.256,36.256 -19.991,0 -36.256,-16.265 -36.256,-36.256 0,-5.485 -4.447,-9.933 -9.933,-9.933 H 56.122 c -3.763,0 -7.201,2.125 -8.885,5.491 L 1.049,128.662 c -1.54,3.079 -1.375,6.735 0.435,9.663 1.81,2.929 5.007,4.712 8.449,4.712 h 36.256 v 113.237 c 0,5.485 4.448,9.933 9.934,9.933 h 184.756 c 5.485,0 9.934,-4.447 9.934,-9.933 V 143.037 h 36.256 c 3.442,0 6.64,-1.783 8.449,-4.712 1.808,-2.927 1.973,-6.584 0.433,-9.663 z M 26.005,123.171 46.189,82.804 v 40.367 H 26.005 Z m 204.939,123.17 H 66.055 V 50.659 h 27.203 c 4.702,26.225 27.685,46.189 55.242,46.189 27.558,0 50.54,-19.964 55.242,-46.189 h 27.202 z m 19.868,-123.17 V 82.804 l 20.184,40.367 z"
     id="path3831" /><path
     style="color:#000000;font-style:normal;font-variant:normal;font-weight:normal;font-stretch:normal;font-size:medium;line-height:normal;font-family:sans-serif;font-variant-ligatures:normal;font-variant-position:normal;font-variant-caps:normal;font-variant-numeric:normal;font-variant-alternates:normal;font-variant-east-asian:normal;font-feature-settings:normal;font-variation-settings:normal;text-indent:0;text-align:start;text-decoration:none;text-decoration-line:none;text-decoration-style:solid;text-decoration-color:#000000;letter-spacing:normal;word-spacing:normal;text-transform:none;writing-mode:lr-tb;direction:ltr;text-orientation:mixed;dominant-baseline:auto;baseline-shift:baseline;text-anchor:start;white-space:normal;shape-padding:0;shape-margin:0;inline-size:0;clip-rule:nonzero;display:inline;overflow:visible;visibility:visible;isolation:auto;mix-blend-mode:normal;color-interpolation:sRGB;color-interpolation-filters:linearRGB;solid-color:#000000;solid-opacity:1;vector-effect:none;fill-opacity:1;fill-rule:nonzero;stroke-width:1;stroke-linecap:butt;stroke-linejoin:miter;stroke-miterlimit:4;stroke-dasharray:none;stroke-dashoffset:0;stroke-opacity:1.0;color-rendering:auto;image-rendering:auto;shape-rendering:auto;text-rendering:auto;enable-background:accumulate;stop-color:#000000;stop-opacity:1;stroke:none;"
     d="M 56.121094 30.292969 C 52.169857 30.292969 48.557224 32.526324 46.789062 36.060547 L 0.6015625 128.4375 C -1.0156641 131.6709 -0.84214231 135.51311 1.0585938 138.58789 C 2.9593002 141.66367 6.3189228 143.53711 9.9335938 143.53711 L 45.689453 143.53711 L 45.689453 256.27344 C 45.689453 262.02875 50.366783 266.70703 56.123047 266.70703 L 240.87891 266.70703 C 246.63416 266.70703 251.3125 262.02976 251.3125 256.27344 L 251.3125 143.53711 L 287.06836 143.53711 C 290.68303 143.53711 294.04359 141.66385 295.94336 138.58789 C 297.84207 135.51404 298.01568 131.67094 296.39844 128.4375 L 250.21094 36.060547 C 248.44278 32.526324 244.83014 30.292969 240.87891 30.292969 L 194.68945 30.292969 C 188.93325 30.292969 184.25586 34.970299 184.25586 40.726562 C 184.25586 60.446357 168.21979 76.482422 148.5 76.482422 C 128.78021 76.482422 112.74414 60.446357 112.74414 40.726562 C 112.74414 34.97131 108.06681 30.292969 102.31055 30.292969 L 56.121094 30.292969 z M 56.121094 31.292969 L 102.31055 31.292969 C 107.52628 31.292969 111.74414 35.511815 111.74414 40.726562 C 111.74414 60.988768 128.23779 77.482422 148.5 77.482422 C 168.76221 77.482422 185.25586 60.988768 185.25586 40.726562 C 185.25586 35.510826 189.47366 31.292969 194.68945 31.292969 L 240.87891 31.292969 C 244.45367 31.292969 247.71657 33.310035 249.31641 36.507812 L 295.50391 128.88477 C 296.96666 131.80932 296.80909 135.28235 295.0918 138.0625 C 293.37356 140.84454 290.33769 142.53711 287.06836 142.53711 L 250.3125 142.53711 L 250.3125 256.27344 C 250.3125 261.48911 246.09365 265.70703 240.87891 265.70703 L 56.123047 265.70703 C 50.907311 265.70703 46.689453 261.48812 46.689453 256.27344 L 46.689453 142.53711 L 9.9335938 142.53711 C 6.6642647 142.53711 3.6294498 140.84472 1.9101562 138.0625 C 0.19089231 135.28128 0.03332038 131.80936 1.4960938 128.88477 L 47.683594 36.507812 C 49.283432 33.310035 52.54633 31.292969 56.121094 31.292969 z M 65.554688 50.158203 L 65.554688 246.8418 L 231.44336 246.8418 L 231.44336 246.3418 L 231.44336 50.158203 L 203.32422 50.158203 L 203.25 50.570312 C 198.59017 76.560127 175.81652 96.347656 148.5 96.347656 C 121.18449 96.347656 98.40983 76.560115 93.75 50.570312 L 93.675781 50.158203 L 65.554688 50.158203 z M 66.554688 51.158203 L 92.876953 51.158203 C 97.791367 77.409571 120.84996 97.347656 148.5 97.347656 C 176.15102 97.347656 199.20865 77.409559 204.12305 51.158203 L 230.44336 51.158203 L 230.44336 245.8418 L 66.554688 245.8418 L 66.554688 51.158203 z M 45.742188 82.580078 L 25.195312 123.67188 L 26.005859 123.67188 L 46.689453 123.67188 L 46.689453 82.804688 L 45.742188 82.580078 z M 251.25977 82.580078 L 250.3125 82.804688 L 250.3125 123.67188 L 250.8125 123.67188 L 271.80469 123.67188 L 251.25977 82.580078 z M 45.689453 84.921875 L 45.689453 122.67188 L 26.814453 122.67188 L 45.689453 84.921875 z M 251.3125 84.921875 L 270.1875 122.67188 L 251.3125 122.67188 L 251.3125 84.921875 z "
     id="path3833" /></g>
</g>
<g
   id="g3225"
   transform="translate(-116.5001,-116.5)">
</g>
<g
   id="g3227"
   transform="translate(-116.5001,-116.5)">
</g>
<g
   id="g3229"
   transform="translate(-116.5001,-116.5)">
</g>
<g
   id="g3231"
   transform="translate(-116.5001,-116.5)">
</g>
<g
   id="g3233"
   transform="translate(-116.5001,-116.5)">
</g>
<g
   id="g3235"
   transform="translate(-116.5001,-116.5)">
</g>
<g
   id="g3237"
   transform="translate(-116.5001,-116.5)">
</g>
<g
   id="g3239"
   transform="translate(-116.5001,-116.5)">
</g>
<g
   id="g3241"
   transform="translate(-116.5001,-116.5)">
</g>
<g
   id="g3243"
   transform="translate(-116.5001,-116.5)">
</g>
<g
   id="g3245"
   transform="translate(-116.5001,-116.5)">
</g>
<g
   id="g3247"
   transform="translate(-116.5001,-116.5)">
</g>
<g
   id="g3249"
   transform="translate(-116.5001,-116.5)">
</g>
<g
   id="g3251"
   transform="translate(-116.5001,-116.5)">
</g>
<g
   id="g3253"
   transform="translate(-116.5001,-116.5)">
</g>
<path
   id="path7172"
   d="m 28.685267,41.572903 c -3.246362,-3.470372 -5.055366,-6.447358 -5.055366,-8.31936 0,-1.597312 1.561349,-3.413544 2.9345,-3.413544 1.565277,0 2.360056,0.931527 2.808279,3.291466 0.451043,2.374794 1.121531,3.188534 2.627221,3.188534 1.50569,0 2.176178,-0.81374 2.627221,-3.188534 0.448223,-2.359939 1.243002,-3.291466 2.808279,-3.291466 1.381105,0 2.9345,1.818871 2.9345,3.436006 0,1.933613 -2.294744,5.641139 -5.383115,8.697285 l -3.077845,3.04573 z"
   style="fill:#e78b38;fill-opacity:1;stroke-width:0.54" /></svg>
