<?xml version="1.0" encoding="UTF-8" standalone="no"?>
<svg
   xmlns:dc="http://purl.org/dc/elements/1.1/"
   xmlns:cc="http://creativecommons.org/ns#"
   xmlns:rdf="http://www.w3.org/1999/02/22-rdf-syntax-ns#"
   xmlns:svg="http://www.w3.org/2000/svg"
   xmlns="http://www.w3.org/2000/svg"
   xmlns:sodipodi="http://sodipodi.sourceforge.net/DTD/sodipodi-0.dtd"
   xmlns:inkscape="http://www.inkscape.org/namespaces/inkscape"
   version="1.1"
   id="Capa_1"
   x="0px"
   y="0px"
   viewBox="0 0 64 64"
   xml:space="preserve"
   sodipodi:docname="drugs-charity.svg"
   width="64"
   height="64"
   inkscape:version="1.0 (1.0+r73+1)"><metadata
   id="metadata2561"><rdf:RDF><cc:Work
       rdf:about=""><dc:format>image/svg+xml</dc:format><dc:type
         rdf:resource="http://purl.org/dc/dcmitype/StillImage" /></cc:Work></rdf:RDF></metadata><defs
   id="defs2559" /><sodipodi:namedview
   inkscape:document-rotation="0"
   pagecolor="#ffffff"
   bordercolor="#666666"
   borderopacity="1"
   objecttolerance="10"
   gridtolerance="10"
   guidetolerance="10"
   inkscape:pageopacity="0"
   inkscape:pageshadow="2"
   inkscape:window-width="1920"
   inkscape:window-height="1043"
   id="namedview2557"
   showgrid="false"
   inkscape:zoom="1.8518519"
   inkscape:cx="-71.949548"
   inkscape:cy="102.72204"
   inkscape:window-x="0"
   inkscape:window-y="0"
   inkscape:window-maximized="1"
   inkscape:current-layer="Capa_1" />
<g
   id="g2524"
   transform="matrix(0.21548847,0,0,0.24412386,5.9080849e-5,-4.2523935)"
   style="fill:#373266;fill-opacity:1">
	<g
   id="g3124"
   style="opacity:1"><path
     style="color:#000000;font-style:normal;font-variant:normal;font-weight:normal;font-stretch:normal;font-size:medium;line-height:normal;font-family:sans-serif;font-variant-ligatures:normal;font-variant-position:normal;font-variant-caps:normal;font-variant-numeric:normal;font-variant-alternates:normal;font-variant-east-asian:normal;font-feature-settings:normal;font-variation-settings:normal;text-indent:0;text-align:start;text-decoration:none;text-decoration-line:none;text-decoration-style:solid;text-decoration-color:#000000;letter-spacing:normal;word-spacing:normal;text-transform:none;writing-mode:lr-tb;direction:ltr;text-orientation:mixed;dominant-baseline:auto;baseline-shift:baseline;text-anchor:start;white-space:normal;shape-padding:0;shape-margin:0;inline-size:0;clip-rule:nonzero;display:inline;overflow:visible;visibility:visible;isolation:auto;mix-blend-mode:normal;color-interpolation:sRGB;color-interpolation-filters:linearRGB;solid-color:#000000;solid-opacity:1;vector-effect:none;fill:#373266;fill-opacity:1;fill-rule:nonzero;stroke-width:1;stroke-linecap:butt;stroke-linejoin:miter;stroke-miterlimit:4;stroke-dasharray:none;stroke-dashoffset:0;stroke-opacity:1.0;color-rendering:auto;image-rendering:auto;shape-rendering:auto;text-rendering:auto;enable-background:accumulate;stop-color:#000000;stop-opacity:1;stroke:none;"
     d="m 294.046,179.17 -39.222,-39.222 c -7.782,-7.782 -21.949,-13.649 -32.953,-13.649 H 119.01 c -13.901,0 -25.211,11.309 -25.211,25.211 v 3.025 c 0,13.901 11.31,25.211 25.211,25.211 h 27.084 l -5.367,5.367 c -3.665,3.665 -11.979,6.439 -17.113,5.704 L 37.09,178.457 c -11.385,-1.627 -25.075,2.258 -31.851,9.032 -4.209,4.209 -6.008,9.816 -4.936,15.383 1.259,6.534 6.243,12.109 13.678,15.296 l 88.666,37.999 c 9.708,4.161 24.754,5.365 34.997,2.805 l 37.208,-9.302 c 8.703,-2.177 21.945,-6.732 30.146,-10.373 l 9.827,-4.363 c 3.631,-1.612 9.83,-0.317 12.513,2.611 l 35.502,38.762 c 1.988,2.173 4.71,3.274 7.439,3.274 2.433,0 4.873,-0.876 6.808,-2.647 4.107,-3.762 4.388,-10.142 0.626,-14.248 l -35.501,-38.763 c -8.475,-9.253 -24.1,-12.513 -35.57,-7.423 l -9.827,4.363 c -7.061,3.135 -19.359,7.366 -26.854,9.24 l -37.208,9.303 c -5.955,1.488 -16.516,0.641 -22.159,-1.777 L 22.656,199.942 c 3.089,-1.217 7.627,-2.085 11.583,-1.52 l 86.524,12.36 c 11.389,1.632 26.099,-3.279 34.228,-11.408 l 11.886,-11.887 c 8.282,-8.282 6.463,-15.727 5.297,-18.544 -1.167,-2.816 -5.145,-9.367 -16.858,-9.367 H 119.01 c -2.732,0 -5.042,-2.31 -5.042,-5.042 v -3.025 c 0,-2.733 2.31,-5.042 5.042,-5.042 h 102.86 c 5.628,0 14.712,3.763 18.691,7.742 l 39.222,39.222 c 3.939,3.938 10.323,3.938 14.262,0 3.939,-3.938 3.939,-10.323 10e-4,-14.261 z"
     id="path3126" /><path
     style="color:#000000;font-style:normal;font-variant:normal;font-weight:normal;font-stretch:normal;font-size:medium;line-height:normal;font-family:sans-serif;font-variant-ligatures:normal;font-variant-position:normal;font-variant-caps:normal;font-variant-numeric:normal;font-variant-alternates:normal;font-variant-east-asian:normal;font-feature-settings:normal;font-variation-settings:normal;text-indent:0;text-align:start;text-decoration:none;text-decoration-line:none;text-decoration-style:solid;text-decoration-color:#000000;letter-spacing:normal;word-spacing:normal;text-transform:none;writing-mode:lr-tb;direction:ltr;text-orientation:mixed;dominant-baseline:auto;baseline-shift:baseline;text-anchor:start;white-space:normal;shape-padding:0;shape-margin:0;inline-size:0;clip-rule:nonzero;display:inline;overflow:visible;visibility:visible;isolation:auto;mix-blend-mode:normal;color-interpolation:sRGB;color-interpolation-filters:linearRGB;solid-color:#000000;solid-opacity:1;vector-effect:none;fill-opacity:1;fill-rule:nonzero;stroke-width:1;stroke-linecap:butt;stroke-linejoin:miter;stroke-miterlimit:4;stroke-dasharray:none;stroke-dashoffset:0;stroke-opacity:1.0;color-rendering:auto;image-rendering:auto;shape-rendering:auto;text-rendering:auto;enable-background:accumulate;stop-color:#000000;stop-opacity:1;stroke:none;"
     d="M 119.00977 125.79883 C 104.83759 125.79883 93.298828 137.33658 93.298828 151.50977 L 93.298828 154.53516 C 93.298828 168.70736 104.83756 180.24609 119.00977 180.24609 L 144.88672 180.24609 L 140.37305 184.75977 C 138.62962 186.50319 135.68615 188.09912 132.5625 189.14062 C 129.43885 190.18213 126.12771 190.67189 123.68555 190.32227 L 37.160156 177.96289 C 25.609239 176.31218 11.831304 180.19028 4.8847656 187.13477 C 0.56914241 191.45039 -1.2909274 197.23659 -0.1875 202.9668 C 1.1078874 209.68964 6.2285022 215.38864 13.783203 218.62695 L 102.44922 256.62695 C 112.29706 260.84789 127.37511 262.0539 137.76562 259.45703 L 174.97266 250.1543 C 183.71911 247.96643 196.95908 243.41315 205.20117 239.75391 L 215.02734 235.39062 C 216.70101 234.64759 219.07415 234.55562 221.33398 235.02734 C 223.59381 235.49907 225.73203 236.53316 226.96875 237.88281 L 262.4707 276.64453 C 264.55536 278.92318 267.41582 280.08008 270.2793 280.08008 C 272.83231 280.08008 275.39498 279.15963 277.42383 277.30273 C 281.73008 273.35822 282.02669 266.65302 278.08203 262.34766 L 242.58008 223.58594 C 233.93784 214.15035 218.13568 210.85258 206.43945 216.04297 L 196.61133 220.40625 C 189.59463 223.52158 177.2879 227.75493 169.83984 229.61719 L 132.63086 238.92188 C 126.85404 240.36535 116.26528 239.51562 110.79102 237.16992 L 24.189453 200.05469 C 27.115454 199.10681 30.818769 198.43768 34.167969 198.91602 L 120.69141 211.27734 C 132.27967 212.9379 147.07269 207.99958 155.34375 199.72852 L 167.23047 187.83984 C 175.64429 179.42602 173.8515 171.68681 172.63672 168.75195 C 171.42087 165.81807 167.21584 159.07617 155.31641 159.07617 L 119.00977 159.07617 C 116.55961 159.07617 114.46875 156.98336 114.46875 154.5332 L 114.46875 151.50977 C 114.46875 149.05851 116.55949 146.9668 119.00977 146.9668 L 221.86914 146.9668 C 224.5717 146.9668 228.21482 147.88874 231.64258 149.30859 C 235.07033 150.72844 238.29633 152.6518 240.20703 154.5625 L 279.42969 193.78516 C 283.55971 197.91414 290.26841 197.91414 294.39844 193.78516 C 298.52854 189.6561 298.52947 182.94549 294.40039 178.81641 L 255.17773 139.59375 C 247.27004 131.68605 233.05282 125.79883 221.87109 125.79883 L 119.00977 125.79883 z M 119.00977 126.79883 L 221.87109 126.79883 C 232.69737 126.79883 246.8144 132.64448 254.4707 140.30078 L 293.69336 179.52344 C 297.44028 183.27036 297.4393 189.33118 293.69141 193.07812 C 289.94343 196.82515 283.88469 196.82515 280.13672 193.07812 L 240.91406 153.85547 C 238.84576 151.78717 235.54139 149.84117 232.02539 148.38477 C 228.50939 146.92836 224.79458 145.9668 221.86914 145.9668 L 119.00977 145.9668 C 115.99604 145.9668 113.46875 148.49502 113.46875 151.50977 L 113.46875 154.5332 C 113.46875 157.54705 115.99592 160.07617 119.00977 160.07617 L 155.31641 160.07617 C 166.84298 160.07617 170.59474 166.43665 171.71289 169.13477 C 172.83011 171.83391 174.67361 178.98264 166.52344 187.13281 L 154.63672 199.01953 C 146.64978 207.00647 132.02372 211.89056 120.83398 210.28711 L 34.310547 197.92773 C 30.23061 197.34503 25.641602 198.22807 22.472656 199.47656 L 21.341797 199.92188 L 110.39648 238.08789 C 116.20822 240.57819 126.74182 241.42315 132.875 239.89062 L 170.08203 230.58789 C 177.62398 228.70215 189.91228 224.47498 197.01758 221.32031 L 206.8457 216.95703 C 218.08947 211.96742 233.53599 215.18935 241.84375 224.25977 L 277.34375 263.02344 C 280.92309 266.93008 280.65775 272.98497 276.75 276.56445 C 274.90885 278.24956 272.59228 279.08008 270.2793 279.08008 C 267.68478 279.08008 265.10033 278.0361 263.20898 275.96875 L 227.70703 237.20703 C 226.26075 235.62869 223.95723 234.55165 221.53906 234.04688 C 219.12089 233.5421 216.58038 233.6076 214.62305 234.47656 L 204.79492 238.83984 C 196.63501 242.4626 183.39002 247.01942 174.73047 249.18555 L 137.52344 258.48633 C 127.42796 261.00946 112.41191 259.80809 102.84375 255.70703 L 14.177734 217.70898 C 6.8624353 214.57329 2.0175345 209.1225 0.79492188 202.77734 C -0.24565068 197.37355 1.4894201 191.94417 5.5917969 187.8418 C 12.197259 181.23828 25.800449 177.34788 37.019531 178.95117 L 123.54297 191.3125 C 126.2348 191.69787 129.6458 191.16784 132.87891 190.08984 C 136.11201 189.01185 139.15851 187.38837 141.08008 185.4668 L 147.30078 179.24609 L 119.00977 179.24609 C 105.37997 179.24609 94.298828 168.16495 94.298828 154.53516 L 94.298828 151.50977 C 94.298828 137.87895 105.37995 126.79883 119.00977 126.79883 z "
     id="path3128" /></g>
	<g
   id="g3130"
   style="opacity:1"><path
     style="color:#000000;font-style:normal;font-variant:normal;font-weight:normal;font-stretch:normal;font-size:medium;line-height:normal;font-family:sans-serif;font-variant-ligatures:normal;font-variant-position:normal;font-variant-caps:normal;font-variant-numeric:normal;font-variant-alternates:normal;font-variant-east-asian:normal;font-feature-settings:normal;font-variation-settings:normal;text-indent:0;text-align:start;text-decoration:none;text-decoration-line:none;text-decoration-style:solid;text-decoration-color:#000000;letter-spacing:normal;word-spacing:normal;text-transform:none;writing-mode:lr-tb;direction:ltr;text-orientation:mixed;dominant-baseline:auto;baseline-shift:baseline;text-anchor:start;white-space:normal;shape-padding:0;shape-margin:0;inline-size:0;clip-rule:nonzero;display:inline;overflow:visible;visibility:visible;isolation:auto;mix-blend-mode:normal;color-interpolation:sRGB;color-interpolation-filters:linearRGB;solid-color:#000000;solid-opacity:1;vector-effect:none;fill:#373266;fill-opacity:1;fill-rule:nonzero;stroke-width:1;stroke-linecap:butt;stroke-linejoin:miter;stroke-miterlimit:4;stroke-dasharray:none;stroke-dashoffset:0;stroke-opacity:1.0;color-rendering:auto;image-rendering:auto;shape-rendering:auto;text-rendering:auto;enable-background:accumulate;stop-color:#000000;stop-opacity:1;stroke:none;"
     d="m 60.899,122.235 c 9.787,0 19.037,-3.861 26.048,-10.871 l 33.515,-33.515 c 14.154,-14.154 14.555,-36.787 0.891,-50.449 -6.435,-6.436 -15.101,-9.981 -24.402,-9.981 -9.785,0 -19.036,3.861 -26.047,10.871 L 37.387,61.804 c -14.153,14.155 -14.553,36.787 -0.891,50.45 6.435,6.437 15.101,9.981 24.403,9.981 z M 96.95,37.587 c 3.914,0 7.516,1.446 10.141,4.073 5.8,5.8 5.4,15.636 -0.891,21.927 l -9.627,9.626 -21.034,-21.035 9.626,-9.626 c 3.154,-3.154 7.45,-4.965 11.785,-4.965 z m -45.301,38.48 9.627,-9.627 21.035,21.035 -9.626,9.627 c -3.154,3.154 -7.45,4.964 -11.786,4.964 -3.914,0 -7.516,-1.446 -10.141,-4.072 -5.799,-5.8 -5.399,-15.636 0.891,-21.927 z"
     id="path3132" /><path
     style="color:#000000;font-style:normal;font-variant:normal;font-weight:normal;font-stretch:normal;font-size:medium;line-height:normal;font-family:sans-serif;font-variant-ligatures:normal;font-variant-position:normal;font-variant-caps:normal;font-variant-numeric:normal;font-variant-alternates:normal;font-variant-east-asian:normal;font-feature-settings:normal;font-variation-settings:normal;text-indent:0;text-align:start;text-decoration:none;text-decoration-line:none;text-decoration-style:solid;text-decoration-color:#000000;letter-spacing:normal;word-spacing:normal;text-transform:none;writing-mode:lr-tb;direction:ltr;text-orientation:mixed;dominant-baseline:auto;baseline-shift:baseline;text-anchor:start;white-space:normal;shape-padding:0;shape-margin:0;inline-size:0;clip-rule:nonzero;display:inline;overflow:visible;visibility:visible;isolation:auto;mix-blend-mode:normal;color-interpolation:sRGB;color-interpolation-filters:linearRGB;solid-color:#000000;solid-opacity:1;vector-effect:none;fill-opacity:1;fill-rule:nonzero;stroke-width:1;stroke-linecap:butt;stroke-linejoin:miter;stroke-miterlimit:4;stroke-dasharray:none;stroke-dashoffset:0;stroke-opacity:1.0;color-rendering:auto;image-rendering:auto;shape-rendering:auto;text-rendering:auto;enable-background:accumulate;stop-color:#000000;stop-opacity:1;stroke:none;"
     d="M 96.951172 16.919922 C 87.034644 16.919922 77.652381 20.83496 70.550781 27.935547 L 37.033203 61.451172 C 22.695118 75.791283 22.281921 98.74575 36.142578 112.60742 C 42.671388 119.13826 51.46944 122.73437 60.898438 122.73438 C 70.816938 122.73438 80.199198 118.81737 87.300781 111.7168 L 120.81641 78.203125 C 135.15552 63.864014 135.56974 40.907556 121.70703 27.046875 C 115.17824 20.517071 106.37922 16.919922 96.951172 16.919922 z M 96.951172 17.919922 C 106.12512 17.919922 114.65879 21.41171 121 27.753906 C 134.46529 41.217225 134.07826 63.527205 120.10938 77.496094 L 86.59375 111.00977 C 79.673333 117.9292 70.553937 121.73437 60.898438 121.73438 C 51.723435 121.73438 43.190799 118.24355 36.849609 111.90039 C 23.386266 98.436062 23.772319 76.128092 37.740234 62.158203 L 71.257812 28.644531 C 78.178212 21.725119 87.2977 17.919922 96.951172 17.919922 z M 96.949219 37.087891 C 92.474965 37.087891 88.0574 38.952365 84.810547 42.199219 L 74.832031 52.177734 L 96.572266 73.919922 L 106.55273 63.941406 C 113.0205 57.473639 113.4533 47.314628 107.44531 41.306641 C 104.7235 38.582759 100.98637 37.087891 96.949219 37.087891 z M 96.949219 38.087891 C 100.74007 38.087891 104.21009 39.483553 106.73828 42.013672 C 112.33029 47.605685 111.95994 57.120142 105.8457 63.234375 L 96.572266 72.505859 L 76.246094 52.177734 L 85.517578 42.90625 C 88.578725 39.845104 92.753473 38.087891 96.949219 38.087891 z M 61.275391 65.732422 L 51.294922 75.712891 C 44.82817 82.180671 44.397326 92.33965 50.404297 98.347656 C 53.126098 101.07049 56.86129 102.56641 60.898438 102.56641 C 65.373583 102.56641 69.792172 100.70197 73.039062 97.455078 L 83.017578 87.474609 L 61.275391 65.732422 z M 61.275391 67.146484 L 81.603516 87.474609 L 72.332031 96.748047 C 69.270922 99.809156 65.095292 101.56641 60.898438 101.56641 C 57.107585 101.56641 53.639527 100.16979 51.111328 97.640625 C 45.520299 92.048631 45.888705 82.534142 52.001953 76.419922 L 61.275391 67.146484 z "
     id="path3134" /></g>
</g>
<g
   id="g2526"
   transform="translate(-116.49955,-116.5)">
</g>
<g
   id="g2528"
   transform="translate(-116.49955,-116.5)">
</g>
<g
   id="g2530"
   transform="translate(-116.49955,-116.5)">
</g>
<g
   id="g2532"
   transform="translate(-116.49955,-116.5)">
</g>
<g
   id="g2534"
   transform="translate(-116.49955,-116.5)">
</g>
<g
   id="g2536"
   transform="translate(-116.49955,-116.5)">
</g>
<g
   id="g2538"
   transform="translate(-116.49955,-116.5)">
</g>
<g
   id="g2540"
   transform="translate(-116.49955,-116.5)">
</g>
<g
   id="g2542"
   transform="translate(-116.49955,-116.5)">
</g>
<g
   id="g2544"
   transform="translate(-116.49955,-116.5)">
</g>
<g
   id="g2546"
   transform="translate(-116.49955,-116.5)">
</g>
<g
   id="g2548"
   transform="translate(-116.49955,-116.5)">
</g>
<g
   id="g2550"
   transform="translate(-116.49955,-116.5)">
</g>
<g
   id="g2552"
   transform="translate(-116.49955,-116.5)">
</g>
<g
   id="g2554"
   transform="translate(-116.49955,-116.5)">
</g>
<path
   id="path6512"
   d=""
   style="fill:#e78b38;fill-opacity:1;stroke-width:0.54" /><path
   id="path6514"
   d="m 18.876379,10.761335 c -0.949261,-0.9793898 -1.72593,-2.0305315 -1.72593,-2.3358709 0,-0.9539957 2.44481,-2.9034216 3.641232,-2.9034216 1.370077,0 2.839544,1.3486789 2.83675,2.6035714 -0.0024,1.0807871 -1.954138,4.4164281 -2.584115,4.4164281 -0.243103,0 -1.218675,-0.801318 -2.167937,-1.780707 z"
   style="fill:#e78b38;fill-opacity:1;stroke-width:0.54" /><path
   id="path6516"
   d="m 11.31845,19.454042 c -1.064549,-1.064549 -0.740975,-3.675601 0.662144,-5.343113 l 1.310144,-1.557018 1.901482,2.289065 1.901482,2.289066 -1.422655,1.485 c -1.50546,1.571433 -3.277419,1.912178 -4.352597,0.837 z"
   style="fill:#e78b38;fill-opacity:1;stroke-width:0.54" /></svg>
