<?xml version="1.0" encoding="UTF-8" standalone="no"?>
<svg
   xmlns:dc="http://purl.org/dc/elements/1.1/"
   xmlns:cc="http://creativecommons.org/ns#"
   xmlns:rdf="http://www.w3.org/1999/02/22-rdf-syntax-ns#"
   xmlns:svg="http://www.w3.org/2000/svg"
   xmlns="http://www.w3.org/2000/svg"
   xmlns:sodipodi="http://sodipodi.sourceforge.net/DTD/sodipodi-0.dtd"
   xmlns:inkscape="http://www.inkscape.org/namespaces/inkscape"
   version="1.1"
   id="Capa_1"
   x="0px"
   y="0px"
   viewBox="0 0 64 64"
   xml:space="preserve"
   sodipodi:docname="food-donation.svg"
   width="64"
   height="64"
   inkscape:version="1.0 (1.0+r73+1)"><metadata
   id="metadata1850"><rdf:RDF><cc:Work
       rdf:about=""><dc:format>image/svg+xml</dc:format><dc:type
         rdf:resource="http://purl.org/dc/dcmitype/StillImage" /></cc:Work></rdf:RDF></metadata><defs
   id="defs1848" /><sodipodi:namedview
   inkscape:document-rotation="0"
   pagecolor="#ffffff"
   bordercolor="#666666"
   borderopacity="1"
   objecttolerance="10"
   gridtolerance="10"
   guidetolerance="10"
   inkscape:pageopacity="0"
   inkscape:pageshadow="2"
   inkscape:window-width="1920"
   inkscape:window-height="1043"
   id="namedview1846"
   showgrid="false"
   inkscape:zoom="2.9714243"
   inkscape:cx="-86.2435"
   inkscape:cy="16.773878"
   inkscape:window-x="0"
   inkscape:window-y="0"
   inkscape:window-maximized="1"
   inkscape:current-layer="Capa_1" />
<g
   id="g1813"
   transform="matrix(0.21548811,0,0,0.23725056,5.908075e-5,-3.2315899)"
   style="fill:#373266;fill-opacity:1">
	<g
   id="g2425"
   style="opacity:1"><path
     style="color:#000000;font-style:normal;font-variant:normal;font-weight:normal;font-stretch:normal;font-size:medium;line-height:normal;font-family:sans-serif;font-variant-ligatures:normal;font-variant-position:normal;font-variant-caps:normal;font-variant-numeric:normal;font-variant-alternates:normal;font-variant-east-asian:normal;font-feature-settings:normal;font-variation-settings:normal;text-indent:0;text-align:start;text-decoration:none;text-decoration-line:none;text-decoration-style:solid;text-decoration-color:#000000;letter-spacing:normal;word-spacing:normal;text-transform:none;writing-mode:lr-tb;direction:ltr;text-orientation:mixed;dominant-baseline:auto;baseline-shift:baseline;text-anchor:start;white-space:normal;shape-padding:0;shape-margin:0;inline-size:0;clip-rule:nonzero;display:inline;overflow:visible;visibility:visible;isolation:auto;mix-blend-mode:normal;color-interpolation:sRGB;color-interpolation-filters:linearRGB;solid-color:#000000;solid-opacity:1;vector-effect:none;fill:#373266;fill-opacity:1;fill-rule:nonzero;stroke-width:1;stroke-linecap:butt;stroke-linejoin:miter;stroke-miterlimit:4;stroke-dasharray:none;stroke-dashoffset:0;stroke-opacity:1.0;color-rendering:auto;image-rendering:auto;shape-rendering:auto;text-rendering:auto;enable-background:accumulate;stop-color:#000000;stop-opacity:1;stroke:none;"
     d="m 294.047,182.967 -39.223,-39.222 c -7.782,-7.781 -21.949,-13.649 -32.953,-13.649 h -102.86 c -13.901,0 -25.21,11.31 -25.21,25.211 v 3.025 c 0,13.901 11.309,25.211 25.21,25.211 h 27.084 l -5.367,5.367 c -3.665,3.666 -11.979,6.436 -17.113,5.705 L 37.09,182.254 c -11.386,-1.627 -25.076,2.258 -31.851,9.033 -4.209,4.209 -6.008,9.816 -4.936,15.382 1.259,6.534 6.243,12.11 13.678,15.296 l 88.666,38 c 9.708,4.16 24.754,5.365 34.997,2.805 l 37.208,-9.303 c 8.703,-2.177 21.945,-6.732 30.146,-10.373 l 9.827,-4.362 c 3.632,-1.612 9.83,-0.318 12.513,2.61 l 35.502,38.763 c 1.988,2.173 4.71,3.273 7.439,3.273 2.433,0 4.873,-0.875 6.808,-2.647 4.107,-3.762 4.388,-10.141 0.626,-14.248 l -35.501,-38.762 c -8.475,-9.255 -24.1,-12.513 -35.57,-7.423 l -9.827,4.362 c -7.061,3.135 -19.359,7.366 -26.854,9.24 l -37.208,9.303 c -5.956,1.489 -16.516,0.642 -22.159,-1.776 L 22.656,203.739 c 3.089,-1.216 7.627,-2.085 11.583,-1.52 l 86.524,12.361 c 11.389,1.636 26.099,-3.28 34.228,-11.409 l 11.886,-11.887 c 8.282,-8.281 6.463,-15.727 5.297,-18.543 -1.167,-2.816 -5.145,-9.368 -16.858,-9.368 h -36.304 c -2.732,0 -5.042,-2.309 -5.042,-5.042 v -3.025 c 0,-2.732 2.31,-5.042 5.042,-5.042 h 102.86 c 5.628,0 14.712,3.763 18.691,7.742 l 39.222,39.222 c 3.939,3.938 10.323,3.938 14.263,0 3.936,-3.937 3.936,-10.323 -10e-4,-14.261 z"
     id="path2427" /><path
     style="color:#000000;font-style:normal;font-variant:normal;font-weight:normal;font-stretch:normal;font-size:medium;line-height:normal;font-family:sans-serif;font-variant-ligatures:normal;font-variant-position:normal;font-variant-caps:normal;font-variant-numeric:normal;font-variant-alternates:normal;font-variant-east-asian:normal;font-feature-settings:normal;font-variation-settings:normal;text-indent:0;text-align:start;text-decoration:none;text-decoration-line:none;text-decoration-style:solid;text-decoration-color:#000000;letter-spacing:normal;word-spacing:normal;text-transform:none;writing-mode:lr-tb;direction:ltr;text-orientation:mixed;dominant-baseline:auto;baseline-shift:baseline;text-anchor:start;white-space:normal;shape-padding:0;shape-margin:0;inline-size:0;clip-rule:nonzero;display:inline;overflow:visible;visibility:visible;isolation:auto;mix-blend-mode:normal;color-interpolation:sRGB;color-interpolation-filters:linearRGB;solid-color:#000000;solid-opacity:1;vector-effect:none;fill-opacity:1;fill-rule:nonzero;stroke-width:1;stroke-linecap:butt;stroke-linejoin:miter;stroke-miterlimit:4;stroke-dasharray:none;stroke-dashoffset:0;stroke-opacity:1.0;color-rendering:auto;image-rendering:auto;shape-rendering:auto;text-rendering:auto;enable-background:accumulate;stop-color:#000000;stop-opacity:1;stroke:none;"
     d="M 119.01172 129.5957 C 104.83952 129.5957 93.300781 141.13446 93.300781 155.30664 L 93.300781 158.33203 C 93.300781 172.50421 104.83952 184.04297 119.01172 184.04297 L 144.88867 184.04297 L 140.375 188.55664 C 138.63164 190.30048 135.68813 191.89636 132.56445 192.9375 C 129.44078 193.97864 126.128 194.46691 123.68555 194.11914 L 37.160156 181.75977 C 25.608257 180.10906 11.830324 183.98804 4.8847656 190.93359 C 0.56914241 195.24922 -1.2909403 201.03443 -0.1875 206.76367 C 1.1078856 213.48651 6.2284266 219.1865 13.783203 222.42383 L 102.44922 260.42383 C 112.297 264.64373 127.37508 265.85274 137.76562 263.25586 L 174.97266 253.95117 C 183.71911 251.7633 196.95908 247.21002 205.20117 243.55078 L 215.02734 239.18945 C 216.70161 238.44636 219.07624 238.35274 221.33594 238.82422 C 223.59563 239.2957 225.73203 240.33003 226.96875 241.67969 L 262.4707 280.44336 C 264.55541 282.72206 267.41594 283.87891 270.2793 283.87891 C 272.83218 283.87891 275.39489 282.95763 277.42383 281.09961 C 281.73005 277.15513 282.02659 270.45083 278.08203 266.14453 L 242.58008 227.38281 C 233.93783 217.94517 218.13564 214.65142 206.43945 219.8418 L 196.61133 224.20312 C 189.59463 227.31846 177.2879 231.5518 169.83984 233.41406 L 132.63086 242.71875 C 126.85305 244.1632 116.2653 243.3125 110.79102 240.9668 L 24.191406 203.85352 C 27.117326 202.90638 30.819495 202.23661 34.167969 202.71484 L 120.69141 215.07422 C 132.27993 216.73888 147.07276 211.79638 155.34375 203.52539 L 167.23047 191.63672 C 175.64433 183.22387 173.85159 175.48285 172.63672 172.54883 C 171.42088 169.61498 167.21587 162.87305 155.31641 162.87305 L 119.01172 162.87305 C 116.56144 162.87305 114.4707 160.78134 114.4707 158.33008 L 114.4707 155.30664 C 114.4707 152.85649 116.56156 150.76367 119.01172 150.76367 L 221.87109 150.76367 C 224.57366 150.76367 228.21678 151.68562 231.64453 153.10547 C 235.07229 154.52532 238.29828 156.44867 240.20898 158.35938 L 279.43164 197.58203 C 283.56167 201.71101 290.27134 201.71094 294.40234 197.58203 C 298.52948 193.45385 298.52848 186.74242 294.40039 182.61328 L 255.17773 143.39062 C 247.27006 135.48396 233.05285 129.5957 221.87109 129.5957 L 119.01172 129.5957 z M 119.01172 130.5957 L 221.87109 130.5957 C 232.69734 130.5957 246.81438 136.44232 254.4707 144.09766 L 293.69336 183.32031 C 297.43927 187.06718 297.44018 193.12918 293.69531 196.875 C 289.94632 200.62209 283.88664 200.62202 280.13867 196.875 L 240.91602 157.65234 C 238.84772 155.58404 235.54334 153.63804 232.02734 152.18164 C 228.51135 150.72524 224.79653 149.76367 221.87109 149.76367 L 119.01172 149.76367 C 115.99787 149.76367 113.4707 152.2928 113.4707 155.30664 L 113.4707 158.33008 C 113.4707 161.34482 115.998 163.87305 119.01172 163.87305 L 155.31641 163.87305 C 166.84295 163.87305 170.59473 170.23349 171.71289 172.93164 C 172.83002 175.62962 174.67358 182.78053 166.52344 190.92969 L 154.63672 202.81836 C 146.64971 210.80537 132.02347 215.69328 120.83398 214.08594 L 34.310547 201.72461 C 30.230528 201.1419 25.641413 202.02604 22.472656 203.27344 L 21.341797 203.71875 L 110.39648 241.88672 C 116.2082 244.37701 126.74081 245.22105 132.875 243.6875 L 170.08203 234.38477 C 177.62398 232.49903 189.91228 228.27186 197.01758 225.11719 L 206.8457 220.75586 C 218.08952 215.76623 233.536 218.98623 241.84375 228.05859 L 277.34375 266.82031 C 280.92319 270.72801 280.65778 276.78181 276.75 280.36133 C 274.90893 282.04731 272.59242 282.87891 270.2793 282.87891 C 267.68466 282.87891 265.10028 281.83487 263.20898 279.76758 L 227.70703 241.00391 C 226.26076 239.42556 223.95712 238.35022 221.53906 237.8457 C 219.12101 237.34118 216.58078 237.40648 214.62305 238.27539 L 204.79492 242.63672 C 196.63501 246.25948 183.39002 250.81629 174.73047 252.98242 L 137.52344 262.28516 C 127.42799 264.80828 112.41197 263.60596 102.84375 259.50586 L 14.177734 221.50586 C 6.8625109 218.37119 2.0175363 212.91938 0.79492188 206.57422 C -0.24563787 201.17146 1.4894201 195.743 5.5917969 191.64062 C 12.196239 185.03618 25.79943 181.14475 37.019531 182.74805 L 123.54492 195.10938 C 126.23647 195.49261 129.64779 194.96237 132.88086 193.88477 C 136.11393 192.80716 139.1604 191.18583 141.08203 189.26367 L 147.30273 183.04297 L 119.01172 183.04297 C 105.38192 183.04297 94.300781 171.96185 94.300781 158.33203 L 94.300781 155.30664 C 94.300781 141.67682 105.38192 130.5957 119.01172 130.5957 z "
     id="path2429" /></g>
	<g
   id="g2431"
   style="opacity:1"><path
     style="color:#000000;font-style:normal;font-variant:normal;font-weight:normal;font-stretch:normal;font-size:medium;line-height:normal;font-family:sans-serif;font-variant-ligatures:normal;font-variant-position:normal;font-variant-caps:normal;font-variant-numeric:normal;font-variant-alternates:normal;font-variant-east-asian:normal;font-feature-settings:normal;font-variation-settings:normal;text-indent:0;text-align:start;text-decoration:none;text-decoration-line:none;text-decoration-style:solid;text-decoration-color:#000000;letter-spacing:normal;word-spacing:normal;text-transform:none;writing-mode:lr-tb;direction:ltr;text-orientation:mixed;dominant-baseline:auto;baseline-shift:baseline;text-anchor:start;white-space:normal;shape-padding:0;shape-margin:0;inline-size:0;clip-rule:nonzero;display:inline;overflow:visible;visibility:visible;isolation:auto;mix-blend-mode:normal;color-interpolation:sRGB;color-interpolation-filters:linearRGB;solid-color:#000000;solid-opacity:1;vector-effect:none;fill:#373266;fill-opacity:1;fill-rule:nonzero;stroke-width:1;stroke-linecap:butt;stroke-linejoin:miter;stroke-miterlimit:4;stroke-dasharray:none;stroke-dashoffset:0;stroke-opacity:1.0;color-rendering:auto;image-rendering:auto;shape-rendering:auto;text-rendering:auto;enable-background:accumulate;stop-color:#000000;stop-opacity:1;stroke:none;"
     d="m 64.053,116.986 h 129.583 c 29.471,0 53.446,-23.184 53.446,-51.682 0,-28.498 -23.976,-51.683 -53.446,-51.683 H 64.053 c -29.472,0 -53.447,23.184 -53.447,51.683 -10e-4,28.499 23.975,51.682 53.447,51.682 z m -1.99,-83.134 c 2.058,7.813 6.858,19.07 18.052,30.264 1.97,1.969 4.55,2.953 7.131,2.953 2.581,0 5.162,-0.984 7.131,-2.953 3.938,-3.938 3.938,-10.323 0,-14.262 C 88.584,44.061 85.243,38.381 83.315,33.791 h 28.647 c 2.05,7.815 6.847,19.102 18.069,30.324 1.97,1.969 4.55,2.953 7.131,2.953 2.581,0 5.161,-0.984 7.131,-2.953 3.938,-3.938 3.938,-10.323 0,-14.262 C 138.5,44.06 135.159,38.38 133.232,33.79 h 28.648 c 2.049,7.815 6.846,19.102 18.068,30.324 1.97,1.969 4.55,2.953 7.131,2.953 2.581,0 5.162,-0.984 7.131,-2.953 3.939,-3.938 3.939,-10.323 0,-14.262 -5.793,-5.793 -9.134,-11.473 -11.061,-16.063 h 10.486 c 18.35,0 33.278,14.137 33.278,31.514 0,17.376 -14.929,31.513 -33.278,31.513 H 64.053 C 45.703,96.816 30.775,82.679 30.775,65.303 30.774,48.56 44.637,34.83 62.063,33.852 Z"
     id="path2433" /><path
     style="color:#000000;font-style:normal;font-variant:normal;font-weight:normal;font-stretch:normal;font-size:medium;line-height:normal;font-family:sans-serif;font-variant-ligatures:normal;font-variant-position:normal;font-variant-caps:normal;font-variant-numeric:normal;font-variant-alternates:normal;font-variant-east-asian:normal;font-feature-settings:normal;font-variation-settings:normal;text-indent:0;text-align:start;text-decoration:none;text-decoration-line:none;text-decoration-style:solid;text-decoration-color:#000000;letter-spacing:normal;word-spacing:normal;text-transform:none;writing-mode:lr-tb;direction:ltr;text-orientation:mixed;dominant-baseline:auto;baseline-shift:baseline;text-anchor:start;white-space:normal;shape-padding:0;shape-margin:0;inline-size:0;clip-rule:nonzero;display:inline;overflow:visible;visibility:visible;isolation:auto;mix-blend-mode:normal;color-interpolation:sRGB;color-interpolation-filters:linearRGB;solid-color:#000000;solid-opacity:1;vector-effect:none;fill-opacity:1;fill-rule:nonzero;stroke-width:1;stroke-linecap:butt;stroke-linejoin:miter;stroke-miterlimit:4;stroke-dasharray:none;stroke-dashoffset:0;stroke-opacity:1.0;color-rendering:auto;image-rendering:auto;shape-rendering:auto;text-rendering:auto;enable-background:accumulate;stop-color:#000000;stop-opacity:1;stroke:none;"
     d="M 64.052734 13.121094 C 34.318519 13.121094 10.105469 36.525268 10.105469 65.304688 C 10.104459 94.084128 34.318531 117.48633 64.052734 117.48633 L 193.63672 117.48633 C 223.36994 117.48633 247.58203 94.083117 247.58203 65.304688 C 247.58203 36.526247 223.36896 13.121094 193.63672 13.121094 L 64.052734 13.121094 z M 64.052734 14.121094 L 193.63672 14.121094 C 222.84447 14.121094 246.58203 37.087128 246.58203 65.304688 C 246.58203 93.522258 222.84549 116.48633 193.63672 116.48633 L 64.052734 116.48633 C 34.842938 116.48633 11.104479 93.523247 11.105469 65.304688 C 11.105469 37.086107 34.842949 14.121094 64.052734 14.121094 z M 132.48047 33.289062 L 132.77148 33.984375 C 134.72134 38.628819 138.09887 44.366447 143.93945 50.207031 C 147.68644 53.954974 147.68637 60.0148 143.93945 63.761719 C 142.06492 65.635296 139.61603 66.568359 137.16211 66.568359 C 134.70819 66.568359 132.25929 65.635296 130.38477 63.761719 C 119.23092 52.607875 114.47672 41.408182 112.44531 33.664062 L 112.34766 33.291016 L 82.5625 33.291016 L 82.853516 33.984375 C 84.80435 38.628736 88.182854 44.366447 94.023438 50.207031 C 97.770429 53.954974 97.770356 60.0148 94.023438 63.761719 C 92.150023 65.635133 89.700011 66.568359 87.246094 66.568359 C 84.792176 66.568359 82.343278 65.635296 80.46875 63.761719 C 69.34273 52.635698 64.586229 41.466822 62.546875 33.724609 L 62.443359 33.330078 L 62.035156 33.353516 C 44.36257 34.345355 30.274374 48.283722 30.275391 65.302734 C 30.275391 82.965106 45.445931 97.316406 64.052734 97.316406 L 193.63477 97.316406 C 212.24058 97.316406 227.41211 82.965126 227.41211 65.302734 C 227.41211 47.639379 212.24157 33.289063 193.63477 33.289062 L 182.39648 33.289062 L 182.6875 33.982422 C 184.63736 38.626866 188.01684 44.364494 193.85742 50.205078 C 197.60539 53.953045 197.60532 60.012823 193.85742 63.759766 C 191.98401 65.63318 189.53204 66.566406 187.07812 66.566406 C 184.62421 66.566406 182.17531 65.633342 180.30078 63.759766 C 169.14694 52.605922 164.39368 41.408119 162.36328 33.664062 L 162.26562 33.289062 L 132.48047 33.289062 z M 134.06641 34.289062 L 161.51758 34.289062 C 163.63455 42.159855 168.46515 53.338199 179.59375 64.466797 C 181.65922 66.53122 184.37004 67.566406 187.07812 67.566406 C 189.78621 67.566406 192.49987 66.531383 194.56445 64.466797 C 198.69456 60.33774 198.69449 53.62808 194.56445 49.498047 C 189.08464 44.018232 185.9241 38.708792 183.98242 34.289062 L 193.63477 34.289062 C 211.72796 34.289062 226.41211 48.21209 226.41211 65.302734 C 226.41211 82.392343 211.72695 96.316406 193.63477 96.316406 L 64.052734 96.316406 C 45.959537 96.316406 31.275391 82.392362 31.275391 65.302734 C 31.274414 48.957783 44.721263 35.547473 61.720703 34.40625 C 63.853641 42.271406 68.684848 53.391879 79.761719 64.46875 C 81.82719 66.533173 84.538011 67.568359 87.246094 67.568359 C 89.954176 67.568359 92.665883 66.533336 94.730469 64.46875 C 98.85955 60.339668 98.859478 53.630057 94.730469 49.5 C 89.250654 44.020185 86.091008 38.710817 84.148438 34.291016 L 111.59961 34.291016 C 113.71754 42.161745 118.54917 53.340181 129.67773 64.46875 C 131.74321 66.533173 134.45403 67.568359 137.16211 67.568359 C 139.87019 67.568359 142.58101 66.533173 144.64648 64.46875 C 148.77557 60.339668 148.77549 53.630057 144.64648 49.5 C 139.1667 44.020214 136.00809 38.708778 134.06641 34.289062 z "
     id="path2435" /></g>
</g>
<g
   id="g1815"
   transform="translate(-116.4998,-116.4995)">
</g>
<g
   id="g1817"
   transform="translate(-116.4998,-116.4995)">
</g>
<g
   id="g1819"
   transform="translate(-116.4998,-116.4995)">
</g>
<g
   id="g1821"
   transform="translate(-116.4998,-116.4995)">
</g>
<g
   id="g1823"
   transform="translate(-116.4998,-116.4995)">
</g>
<g
   id="g1825"
   transform="translate(-116.4998,-116.4995)">
</g>
<g
   id="g1827"
   transform="translate(-116.4998,-116.4995)">
</g>
<g
   id="g1829"
   transform="translate(-116.4998,-116.4995)">
</g>
<g
   id="g1831"
   transform="translate(-116.4998,-116.4995)">
</g>
<g
   id="g1833"
   transform="translate(-116.4998,-116.4995)">
</g>
<g
   id="g1835"
   transform="translate(-116.4998,-116.4995)">
</g>
<g
   id="g1837"
   transform="translate(-116.4998,-116.4995)">
</g>
<g
   id="g1839"
   transform="translate(-116.4998,-116.4995)">
</g>
<g
   id="g1841"
   transform="translate(-116.4998,-116.4995)">
</g>
<g
   id="g1843"
   transform="translate(-116.4998,-116.4995)">
</g>
<path
   id="path5829"
   d="M 11.184525,18.833357 C 5.3100651,16.090883 5.7733306,7.2868352 11.890893,5.4093018 c 1.012716,-0.3108112 1.211486,-0.281725 1.366339,0.1999375 0.588633,1.8309104 2.368815,4.9888687 3.457326,6.1331307 1.425878,1.49891 2.226014,1.64295 3.511133,0.632076 1.204429,-0.947405 1.212791,-2.774141 0.02,-4.3693326 C 19.768987,7.3675895 19.159328,6.4295122 18.890892,5.920497 L 18.402827,4.9950149 h 2.711517 c 2.285306,0 2.741525,0.092573 2.902433,0.5889432 0.605996,1.8693824 2.373378,5.0087479 3.467027,6.1584119 1.425878,1.49891 2.226014,1.64295 3.511133,0.632076 1.20443,-0.947405 1.212791,-2.774141 0.02,-4.3693326 C 30.538234,7.3675895 29.928574,6.4295122 29.660139,5.920497 L 29.172074,4.9950149 h 2.711516 c 2.285306,0 2.741525,0.092573 2.902433,0.5889432 0.605996,1.8693824 2.373378,5.0087479 3.467027,6.1584119 1.425878,1.49891 2.226015,1.64295 3.511133,0.632076 1.1716,-0.921581 1.224558,-2.8728394 0.115093,-4.2406249 -0.935306,-1.1530775 -1.920671,-2.6951363 -1.920671,-3.0057789 0,-0.4863904 3.761381,0.1938601 5.037395,0.9110187 2.602577,1.4627314 4.172841,5.0992171 3.414087,7.9065041 -0.518011,1.916577 -2.073161,3.940337 -3.61669,4.706507 -1.218099,0.604631 -2.289081,0.651078 -16.781925,0.727791 -14.508182,0.07679 -15.565366,0.04246 -16.826947,-0.546506 z"
   style="fill:#e78b38;fill-opacity:1;stroke-width:0.336539" /></svg>
