<?xml version="1.0" encoding="UTF-8" standalone="no"?>
<svg
   xmlns:dc="http://purl.org/dc/elements/1.1/"
   xmlns:cc="http://creativecommons.org/ns#"
   xmlns:rdf="http://www.w3.org/1999/02/22-rdf-syntax-ns#"
   xmlns:svg="http://www.w3.org/2000/svg"
   xmlns="http://www.w3.org/2000/svg"
   xmlns:sodipodi="http://sodipodi.sourceforge.net/DTD/sodipodi-0.dtd"
   xmlns:inkscape="http://www.inkscape.org/namespaces/inkscape"
   version="1.1"
   id="Capa_1"
   x="0px"
   y="0px"
   viewBox="0 0 64 63.999969"
   xml:space="preserve"
   sodipodi:docname="toys-donation.svg"
   width="64"
   height="63.999969"
   inkscape:version="1.0 (1.0+r73+1)"><metadata
   id="metadata1131"><rdf:RDF><cc:Work
       rdf:about=""><dc:format>image/svg+xml</dc:format><dc:type
         rdf:resource="http://purl.org/dc/dcmitype/StillImage" /></cc:Work></rdf:RDF></metadata><defs
   id="defs1129" /><sodipodi:namedview
   inkscape:document-rotation="0"
   pagecolor="#ffffff"
   bordercolor="#666666"
   borderopacity="1"
   objecttolerance="10"
   gridtolerance="10"
   guidetolerance="10"
   inkscape:pageopacity="0"
   inkscape:pageshadow="2"
   inkscape:window-width="1920"
   inkscape:window-height="1043"
   id="namedview1127"
   showgrid="false"
   inkscape:zoom="8.0156288"
   inkscape:cx="7.9844168"
   inkscape:cy="31.999985"
   inkscape:window-x="0"
   inkscape:window-y="0"
   inkscape:window-maximized="1"
   inkscape:current-layer="Capa_1" />
<g
   id="g1694"
   style="opacity:1"><path
     style="color:#000000;font-style:normal;font-variant:normal;font-weight:normal;font-stretch:normal;font-size:medium;line-height:normal;font-family:sans-serif;font-variant-ligatures:normal;font-variant-position:normal;font-variant-caps:normal;font-variant-numeric:normal;font-variant-alternates:normal;font-variant-east-asian:normal;font-feature-settings:normal;font-variation-settings:normal;text-indent:0;text-align:start;text-decoration:none;text-decoration-line:none;text-decoration-style:solid;text-decoration-color:#000000;letter-spacing:normal;word-spacing:normal;text-transform:none;writing-mode:lr-tb;direction:ltr;text-orientation:mixed;dominant-baseline:auto;baseline-shift:baseline;text-anchor:start;white-space:normal;shape-padding:0;shape-margin:0;inline-size:0;clip-rule:nonzero;display:inline;overflow:visible;visibility:visible;isolation:auto;mix-blend-mode:normal;color-interpolation:sRGB;color-interpolation-filters:linearRGB;solid-color:#000000;solid-opacity:1;vector-effect:none;fill:#373266;fill-opacity:1;fill-rule:nonzero;stroke-width:0.130612;stroke-linecap:butt;stroke-linejoin:miter;stroke-miterlimit:4;stroke-dasharray:none;stroke-dashoffset:0;stroke-opacity:1.0;color-rendering:auto;image-rendering:auto;shape-rendering:auto;text-rendering:auto;enable-background:accumulate;stop-color:#000000;stop-opacity:1;stroke:none;"
     d="m 33.95918,13.71426 v -0.26123 c 0,-1.08199 0.8772,-1.95918 1.95919,-1.95918 1.08199,0 1.95918,0.87719 1.95918,1.95918 v 0.26123 c 0,1.08199 -0.87719,1.95918 -1.95918,1.95918 -1.08199,0 -1.95919,-0.87719 -1.95919,-1.95918 z m -5.22449,6.53061 c 0,1.08199 0.8772,1.95918 1.95919,1.95918 h 2.61224 c 1.08199,0 1.95919,-0.87719 1.95919,-1.95918 0,-1.08199 -0.8772,-1.95919 -1.95919,-1.95919 h -2.61224 c -1.08199,0 -1.95919,0.8772 -1.95919,1.95919 z M 64,52.89793 c 0,6.12166 -4.98038,11.10204 -11.10204,11.10204 -2.89306,0 -5.53117,-1.11229 -7.50916,-2.93159 -4.17345,1.92143 -8.77166,2.93159 -13.3888,2.93159 -4.61714,0 -9.21535,-1.01016 -13.3888,-2.93159 -1.97799,1.8193 -4.6161,2.93159 -7.50916,2.93159 C 4.98038,63.99997 0,59.01959 0,52.89793 0,50.00931 1.10903,47.37473 2.92349,45.39765 0.41273,42.8306 -0.60931,39.02926 0.36389,35.39132 c 0.007,-0.0281 0.0157,-0.056 0.0244,-0.0837 l 0.72699,-2.3023 C 2.99414,27.05528 6.75159,21.97825 11.75796,18.589 c -0.002,-0.10097 -0.003,-0.20193 -0.003,-0.30329 0,-3.52705 1.16506,-6.89097 3.31024,-9.63487 C 14.61237,7.80473 14.36721,6.8514 14.36721,5.87755 14.36721,2.63667 17.00388,0 20.24476,0 c 2.08627,0 3.94488,1.07638 4.99148,2.76519 0.72463,-0.10161 1.4575,-0.15295 2.19219,-0.15295 h 9.14286 c 0.73469,0 1.46756,0.0513 2.19219,0.15295 C 39.81008,1.07638 41.66869,0 43.75496,0 c 3.24088,0 5.87755,2.63667 5.87755,5.87755 0,0.97385 -0.24516,1.92718 -0.69799,2.77329 2.14518,2.7439 3.31024,6.10782 3.31024,9.63487 0,0.10136 -9.2e-4,0.20232 -0.003,0.30329 5.0065,3.38938 8.76396,8.46628 10.64268,14.41632 l 0.72699,2.3023 c 0.009,0.0277 0.0168,0.0555 0.0244,0.0836 0.97333,3.63807 -0.0488,7.43941 -2.5596,10.00646 1.81446,1.97708 2.92349,4.61166 2.92349,7.50028 z M 15.67347,18.28568 c 0,0.3648 0.0166,0.72621 0.0492,1.08422 0.005,0.0385 0.009,0.0772 0.0111,0.11585 0.38544,3.80513 2.58782,7.16486 5.91112,9.03771 1.54305,-1.5488 3.58531,-2.40104 5.75804,-2.40104 1.3e-4,0 0,0 0,0 1.66426,0 3.25185,0.49998 4.59703,1.42994 1.34583,-0.93022 2.93316,-1.42994 4.59703,-1.42994 2.17286,0 4.21499,0.85211 5.75791,2.40104 3.32343,-1.87285 5.52581,-5.23271 5.91112,-9.03771 0.003,-0.0387 0.006,-0.0773 0.0111,-0.11585 0.0327,-0.35801 0.0492,-0.71942 0.0492,-1.08422 0,-3.06834 -1.17577,-5.97224 -3.31076,-8.17658 -0.36624,-0.37813 -0.5649,-0.88777 -0.55118,-1.41388 0.0137,-0.52624 0.23863,-1.02492 0.62393,-1.38345 0.40359,-0.37551 0.6259,-0.88476 0.6259,-1.43425 0,-1.08029 -0.87889,-1.95918 -1.95919,-1.95918 -0.91624,0 -1.7007,0.62223 -1.90746,1.51327 -0.11899,0.51252 -0.43912,0.95556 -0.88829,1.22958 -0.44918,0.2739 -0.98978,0.35579 -1.49982,0.22701 -0.93976,-0.23732 -1.91138,-0.35762 -2.8881,-0.35762 h -9.14286 c -0.97672,0 -1.94834,0.1203 -2.88823,0.35762 C 24.03022,7.01685 23.48975,6.9351 23.04044,6.66119 22.59127,6.38717 22.27114,5.94413 22.15215,5.43161 21.94552,4.54057 21.16106,3.91834 20.24482,3.91834 c -1.0803,0 -1.95919,0.87889 -1.95919,1.95918 0,0.54949 0.22231,1.05874 0.6259,1.43425 0.3853,0.35853 0.61022,0.85721 0.62393,1.38345 0.0136,0.52611 -0.18507,1.03588 -0.55118,1.41388 -2.13512,2.20434 -3.31089,5.10824 -3.31089,8.17658 z m 24.51749,13.77267 c -0.0167,-0.0248 -0.0331,-0.0503 -0.0487,-0.076 -0.15478,-0.23602 -0.33437,-0.46015 -0.53865,-0.66835 -0.80522,-0.82102 -1.87298,-1.2732 -3.00669,-1.2732 -1.13372,0 -2.20147,0.45218 -3.00683,1.2732 -0.0432,0.0443 -0.0866,0.0908 -0.12891,0.13793 -0.36441,0.40529 -0.88085,0.64914 -1.42576,0.64914 -0.75938,0 -1.23651,-0.3597 -1.4963,-0.64836 -0.0427,-0.0473 -0.0862,-0.0943 -0.13113,-0.14014 -0.80379,-0.81946 -1.87155,-1.27164 -3.00526,-1.27164 -1.13371,0 -2.20147,0.45218 -3.00682,1.27321 -0.20415,0.20819 -0.38361,0.43219 -0.53826,0.66795 -0.0159,0.026 -0.0324,0.0517 -0.0492,0.0768 -1.06945,1.70658 -0.87366,4.00561 0.5875,5.49551 0.0637,0.0649 7.00408,7.14148 7.00408,7.14148 0.21903,0.22335 0.46981,0.25666 0.59977,0.25666 0.12996,0 0.38073,-0.0333 0.59977,-0.25666 0,0 6.94021,-7.07657 7.00447,-7.14201 1.46103,-1.48963 1.65669,-3.78867 0.58698,-5.49551 z M 18.28571,52.89793 c 0,-3.96108 -3.22259,-7.18367 -7.18367,-7.18367 -3.96108,0 -7.18367,3.22259 -7.18367,7.18367 0,3.96108 3.22259,7.18367 7.18367,7.18367 3.96108,0 7.18367,-3.22259 7.18367,-7.18367 z M 52.89796,41.79589 c 1.80506,0 3.51033,0.43272 5.01851,1.20032 1.80689,-1.571 2.58234,-4.11167 1.94482,-6.55294 l -0.71301,-2.25816 c -1.41806,-4.49097 -4.07537,-8.39719 -7.60451,-11.24297 -1.15892,3.74622 -3.69502,6.9487 -7.15781,8.9344 0.34664,1.09636 0.46433,2.25189 0.35304,3.38861 h 5.54671 c 1.082,0 1.95919,0.87719 1.95919,1.95918 0,1.08199 -0.87719,1.95918 -1.95919,1.95918 H 43.7551 c -0.13988,0 -0.27624,-0.0146 -0.4079,-0.0425 -0.27559,0.40725 -0.59089,0.79465 -0.94602,1.15671 -0.0648,0.066 -7.00396,7.14148 -7.00396,7.14148 -0.9054,0.92304 -2.11186,1.43138 -3.39735,1.43138 -1.28549,0 -2.49195,-0.50834 -3.39723,-1.43138 0,0 -6.93916,-7.07552 -7.00342,-7.14096 -0.35527,-0.36206 -0.67083,-0.74998 -0.94642,-1.15723 -0.13153,0.028 -0.26802,0.0426 -0.4079,0.0426 h -6.53061 c -1.082,0 -1.95919,-0.87719 -1.95919,-1.95918 0,-1.08199 0.87719,-1.95918 1.95919,-1.95918 h 5.54684 c -0.11142,-1.13672 0.006,-2.29238 0.35291,-3.38861 -3.46279,-1.9857 -5.99889,-5.18831 -7.15781,-8.9344 -3.52914,2.84578 -6.18632,6.752 -7.60451,11.24297 l -0.71301,2.25803 c -0.63739,2.44114 0.13793,4.98207 1.94482,6.55308 1.50818,-0.76774 3.21345,-1.20046 5.01851,-1.20046 6.12167,0 11.10204,4.98037 11.10204,11.10204 0,1.78194 -0.42188,3.46697 -1.1712,4.96065 3.46188,1.47631 7.14123,2.22302 10.96712,2.22302 3.82589,0 7.50524,-0.74671 10.96712,-2.22302 -0.74932,-1.49368 -1.1712,-3.17871 -1.1712,-4.96065 0,-6.12167 4.98037,-11.10204 11.10204,-11.10204 z m 7.18367,11.10204 c 0,-3.96108 -3.22259,-7.18367 -7.18367,-7.18367 -3.96108,0 -7.18367,3.22259 -7.18367,7.18367 0,3.96108 3.22259,7.18367 7.18367,7.18367 3.96108,0 7.18367,-3.22259 7.18367,-7.18367 z m -32,-37.22449 c 1.08199,0 1.95919,-0.87719 1.95919,-1.95918 v -0.26123 c 0,-1.08199 -0.8772,-1.95918 -1.95919,-1.95918 -1.08199,0 -1.95918,0.87719 -1.95918,1.95918 v 0.26123 c 0,1.08199 0.87719,1.95918 1.95918,1.95918 z"
     id="path1696" /><path
     style="color:#000000;font-style:normal;font-variant:normal;font-weight:normal;font-stretch:normal;font-size:medium;line-height:normal;font-family:sans-serif;font-variant-ligatures:normal;font-variant-position:normal;font-variant-caps:normal;font-variant-numeric:normal;font-variant-alternates:normal;font-variant-east-asian:normal;font-feature-settings:normal;font-variation-settings:normal;text-indent:0;text-align:start;text-decoration:none;text-decoration-line:none;text-decoration-style:solid;text-decoration-color:#000000;letter-spacing:normal;word-spacing:normal;text-transform:none;writing-mode:lr-tb;direction:ltr;text-orientation:mixed;dominant-baseline:auto;baseline-shift:baseline;text-anchor:start;white-space:normal;shape-padding:0;shape-margin:0;inline-size:0;clip-rule:nonzero;display:inline;overflow:visible;visibility:visible;isolation:auto;mix-blend-mode:normal;color-interpolation:sRGB;color-interpolation-filters:linearRGB;solid-color:#000000;solid-opacity:1;vector-effect:none;fill-opacity:1;fill-rule:nonzero;stroke-width:0.130612;stroke-linecap:butt;stroke-linejoin:miter;stroke-miterlimit:4;stroke-dasharray:none;stroke-dashoffset:0;stroke-opacity:1.0;color-rendering:auto;image-rendering:auto;shape-rendering:auto;text-rendering:auto;enable-background:accumulate;stop-color:#000000;stop-opacity:1;stroke:none;"
     d="M 20.244141 -0.064453125 C 16.96784 -0.064453125 14.302734 2.6006526 14.302734 5.8769531 C 14.302734 6.8474068 14.552928 7.7945429 14.998047 8.640625 C 12.857196 11.391028 11.689453 14.755094 11.689453 18.285156 C 11.689453 18.376508 11.691742 18.467589 11.693359 18.558594 C 6.6894216 21.956267 2.9321689 27.034469 1.0527344 32.986328 L 0.32617188 35.287109 C 0.31744495 35.314895 0.3083983 35.344423 0.30078125 35.375 C -0.67345724 39.016822 0.34589177 42.817229 2.8457031 45.400391 C 1.0427625 47.384378 -0.064453125 50.012936 -0.064453125 52.898438 C -0.064453125 59.055518 4.944482 64.064453 11.101562 64.064453 C 13.99658 64.064453 16.634971 62.952087 18.621094 61.138672 C 22.793792 63.053519 27.386383 64.064453 32 64.064453 C 36.613617 64.064453 41.206208 63.053519 45.378906 61.138672 C 47.365029 62.952087 50.00342 64.064453 52.898438 64.064453 C 59.055518 64.064453 64.064453 59.055518 64.064453 52.898438 L 64.064453 52.826172 L 64.050781 52.828125 C 64.032038 49.971767 62.941726 47.367309 61.154297 45.400391 C 63.654136 42.81723 64.673585 39.016944 63.699219 35.375 C 63.691513 35.346508 63.68337 35.316476 63.673828 35.287109 L 62.947266 32.986328 C 61.067971 27.034467 57.310706 21.956395 52.306641 18.558594 C 52.308304 18.467537 52.310547 18.376477 52.310547 18.285156 C 52.310547 14.755096 51.142801 11.391027 49.001953 8.640625 C 49.447072 7.7945429 49.697266 6.8474068 49.697266 5.8769531 C 49.697266 2.6006526 47.03216 -0.064453125 43.755859 -0.064453125 C 41.663427 -0.064453125 39.802915 1.0142707 38.740234 2.6992188 C 38.023322 2.600187 37.298876 2.546875 36.572266 2.546875 L 27.427734 2.546875 C 26.70047 2.546875 25.975349 2.6000481 25.257812 2.6992188 C 24.19513 1.0142815 22.336565 -0.064453125 20.244141 -0.064453125 z M 20.244141 0.064453125 C 22.307948 0.064453125 24.146732 1.1288833 25.181641 2.7988281 L 25.203125 2.8359375 L 25.246094 2.8300781 C 25.967723 2.7288889 26.696087 2.6777344 27.427734 2.6777344 L 36.572266 2.6777344 C 37.303916 2.6777344 38.032282 2.7288497 38.753906 2.8300781 L 38.796875 2.8359375 L 38.818359 2.7988281 C 39.853268 1.1288833 41.692052 0.064453125 43.755859 0.064453125 C 46.961319 0.064453125 49.566406 2.6714936 49.566406 5.8769531 C 49.566406 6.8398429 49.324781 7.782378 48.876953 8.6191406 L 48.857422 8.6582031 L 48.882812 8.6914062 C 51.019108 11.423942 52.179688 14.772488 52.179688 18.285156 C 52.179688 18.386121 52.177851 18.48742 52.175781 18.587891 L 52.175781 18.623047 L 52.205078 18.642578 C 57.19907 22.02349 60.947862 27.089021 62.822266 33.025391 L 63.548828 35.328125 C 63.557287 35.354159 63.564772 35.380495 63.572266 35.408203 C 64.53971 39.024274 63.523757 42.801218 61.029297 45.351562 L 60.986328 45.396484 L 61.027344 45.441406 C 62.831225 47.40696 63.933594 50.026533 63.933594 52.898438 L 63.933594 52.908203 C 63.927968 58.989689 58.981216 63.935547 52.898438 63.935547 C 50.022116 63.935547 47.400051 62.828223 45.433594 61.019531 L 45.400391 60.990234 L 45.361328 61.009766 C 41.196532 62.927211 36.607615 63.935547 32 63.935547 C 27.392385 63.935547 22.803468 62.927211 18.638672 61.009766 L 18.599609 60.990234 L 18.566406 61.019531 C 16.599949 62.828223 13.977884 63.935547 11.101562 63.935547 C 5.015323 63.935547 0.064453125 58.984677 0.064453125 52.898438 C 0.064453125 50.026533 1.1668216 47.40696 2.9707031 45.441406 L 3.0136719 45.396484 L 2.9707031 45.351562 C 0.47628297 42.801219 -0.53958081 39.024145 0.42773438 35.408203 L 0.42773438 35.40625 C 0.43411733 35.380627 0.4424988 35.355739 0.45117188 35.328125 L 1.1777344 33.025391 C 3.0522782 27.089019 6.8010616 22.023359 11.794922 18.642578 L 11.824219 18.623047 L 11.824219 18.587891 C 11.822227 18.487351 11.820312 18.386087 11.820312 18.285156 C 11.820312 14.772488 12.980892 11.423942 15.117188 8.6914062 L 15.142578 8.6582031 L 15.123047 8.6191406 C 14.675219 7.782378 14.431641 6.8398429 14.431641 5.8769531 C 14.431641 2.6714936 17.038681 0.064453125 20.244141 0.064453125 z M 20.244141 3.8535156 C 19.12842 3.8535156 18.220703 4.7612425 18.220703 5.8769531 C 18.220703 6.4440572 18.450796 6.9719543 18.867188 7.359375 C 19.239658 7.7059666 19.457449 8.1885412 19.470703 8.6972656 C 19.48385 9.2058621 19.29141 9.6990491 18.9375 10.064453 C 16.790774 12.280775 15.607422 15.200133 15.607422 18.285156 L 15.607422 18.351562 L 15.611328 18.351562 C 15.613237 18.695594 15.627423 19.036977 15.658203 19.375 L 15.658203 19.376953 L 15.658203 19.378906 C 15.663056 19.416275 15.665984 19.453712 15.667969 19.490234 L 15.667969 19.492188 C 16.055534 23.318299 18.27163 26.696886 21.613281 28.580078 L 21.65625 28.605469 L 21.691406 28.570312 C 23.222576 27.033437 25.246691 26.1875 27.402344 26.1875 C 29.053524 26.1875 30.628475 26.68295 31.962891 27.605469 L 32 27.630859 L 32.037109 27.605469 C 33.372181 26.682685 34.946862 26.1875 36.597656 26.1875 C 38.753443 26.1875 40.777556 27.033311 42.308594 28.570312 L 42.34375 28.605469 L 42.386719 28.580078 C 45.728501 26.696886 47.942643 23.318171 48.330078 19.492188 L 48.332031 19.492188 L 48.332031 19.490234 C 48.335031 19.451543 48.337004 19.415138 48.341797 19.378906 L 48.341797 19.376953 L 48.341797 19.375 C 48.374678 19.015007 48.392578 18.651925 48.392578 18.285156 C 48.392578 15.200133 47.209095 12.280775 45.0625 10.064453 C 44.708451 9.6989098 44.516034 9.2058539 44.529297 8.6972656 C 44.542541 8.1885428 44.760342 7.705967 45.132812 7.359375 C 45.549204 6.9719543 45.779297 6.4440572 45.779297 5.8769531 C 45.779297 4.7612425 44.87158 3.8535156 43.755859 3.8535156 C 42.810053 3.8535156 41.996671 4.4960667 41.783203 5.4160156 C 41.668174 5.9114767 41.360012 6.3405628 40.925781 6.6054688 C 40.491547 6.8702552 39.967658 6.9487087 39.474609 6.8242188 C 38.529568 6.5855651 37.554348 6.4648437 36.572266 6.4648438 L 27.427734 6.4648438 C 26.445652 6.4648438 25.468606 6.5855658 24.523438 6.8242188 C 24.030368 6.9485883 23.508586 6.8702691 23.074219 6.6054688 C 22.639988 6.3405628 22.329873 5.9114767 22.214844 5.4160156 C 22.001508 4.4960599 21.189947 3.8535156 20.244141 3.8535156 z M 20.244141 3.984375 C 21.130814 3.984375 21.887966 4.5851414 22.087891 5.4472656 C 22.210841 5.9768446 22.54175 6.4336629 23.005859 6.7167969 C 23.470112 6.9998165 24.029631 7.0841023 24.556641 6.9511719 C 25.491252 6.7151848 26.456377 6.5957031 27.427734 6.5957031 L 36.572266 6.5957031 C 37.543623 6.5957031 38.50888 6.7151855 39.443359 6.9511719 C 39.970391 7.084242 40.530015 6.9998104 40.994141 6.7167969 C 41.45825 6.4336629 41.789159 5.9768446 41.912109 5.4472656 C 42.112161 4.5851345 42.869186 3.984375 43.755859 3.984375 C 44.800739 3.984375 45.648438 4.8320837 45.648438 5.8769531 C 45.648438 6.408829 45.433757 6.9000725 45.042969 7.2636719 C 44.644839 7.6341399 44.412594 8.1496022 44.398438 8.6933594 C 44.384261 9.2369911 44.590319 9.7635802 44.96875 10.154297 C 47.092135 12.346655 48.261719 15.2335 48.261719 18.285156 C 48.261719 18.647987 48.24541 19.007254 48.212891 19.363281 C 48.207646 19.403451 48.204124 19.442389 48.201172 19.480469 C 47.818736 23.2509 45.639337 26.579469 42.353516 28.445312 C 40.803603 26.910347 38.768387 26.056641 36.597656 26.056641 C 34.934791 26.056641 33.34925 26.557914 32 27.480469 C 30.651374 26.558158 29.065599 26.056641 27.402344 26.056641 C 25.232652 26.056641 23.196286 26.909749 21.646484 28.443359 C 18.361919 26.577724 16.181898 23.251803 15.798828 19.482422 L 15.798828 19.478516 C 15.7966 19.439721 15.79198 19.401033 15.787109 19.363281 L 15.787109 19.361328 C 15.754804 19.005909 15.738281 18.647319 15.738281 18.285156 C 15.738281 15.2335 16.907736 12.346655 19.03125 10.154297 C 19.40956 9.7637009 19.615615 9.2369829 19.601562 8.6933594 C 19.587396 8.1496038 19.353208 7.6341403 18.955078 7.2636719 C 18.564289 6.9000725 18.351562 6.408829 18.351562 5.8769531 C 18.351562 4.8320837 19.199261 3.984375 20.244141 3.984375 z M 28.082031 11.427734 C 26.964745 11.427734 26.056641 12.335838 26.056641 13.453125 L 26.056641 13.714844 C 26.056641 14.83213 26.964745 15.738281 28.082031 15.738281 C 29.199318 15.738281 30.105469 14.832131 30.105469 13.714844 L 30.105469 13.453125 C 30.105469 12.335838 29.199318 11.427734 28.082031 11.427734 z M 35.917969 11.427734 C 34.800682 11.427734 33.894531 12.335838 33.894531 13.453125 L 33.894531 13.714844 C 33.894531 14.832131 34.800682 15.738281 35.917969 15.738281 C 37.035255 15.738281 37.943359 14.83213 37.943359 13.714844 L 37.943359 13.453125 C 37.943359 12.335838 37.035255 11.427734 35.917969 11.427734 z M 28.082031 11.558594 C 29.128725 11.558594 29.974609 12.406432 29.974609 13.453125 L 29.974609 13.714844 C 29.974609 14.761537 29.128725 15.607422 28.082031 15.607422 C 27.035338 15.607422 26.1875 14.761537 26.1875 13.714844 L 26.1875 13.453125 C 26.1875 12.406432 27.035338 11.558594 28.082031 11.558594 z M 35.917969 11.558594 C 36.964662 11.558594 37.8125 12.406432 37.8125 13.453125 L 37.8125 13.714844 C 37.8125 14.761537 36.964662 15.607422 35.917969 15.607422 C 34.871275 15.607422 34.025391 14.761537 34.025391 13.714844 L 34.025391 13.453125 C 34.025391 12.406432 34.871275 11.558594 35.917969 11.558594 z M 30.693359 18.220703 C 29.576072 18.220703 28.669922 19.126854 28.669922 20.244141 C 28.669922 21.361428 29.576073 22.269531 30.693359 22.269531 L 33.306641 22.269531 C 34.423927 22.269531 35.330078 21.361428 35.330078 20.244141 C 35.330078 19.126854 34.423928 18.220703 33.306641 18.220703 L 30.693359 18.220703 z M 30.693359 18.351562 L 33.306641 18.351562 C 34.353334 18.351562 35.199219 19.197448 35.199219 20.244141 C 35.199219 21.290834 34.353334 22.138672 33.306641 22.138672 L 30.693359 22.138672 C 29.646666 22.138672 28.800781 21.290834 28.800781 20.244141 C 28.800781 19.197448 29.646666 18.351562 30.693359 18.351562 z M 12.490234 22.830078 L 12.416016 22.890625 C 8.8766128 25.744681 6.2110316 29.663078 4.7890625 34.166016 L 4.0761719 36.425781 C 3.432713 38.890164 4.2147942 41.457104 6.0410156 43.044922 L 6.0742188 43.074219 L 6.1132812 43.054688 C 7.6125664 42.291475 9.3069395 41.861328 11.101562 41.861328 C 17.187812 41.861328 22.138672 46.812188 22.138672 52.898438 C 22.138672 54.67007 21.719508 56.345212 20.974609 57.830078 L 20.943359 57.890625 L 21.007812 57.917969 C 24.477742 59.397711 28.165613 60.146484 32 60.146484 C 35.834387 60.146484 39.522258 59.397711 42.992188 57.917969 L 43.056641 57.890625 L 43.025391 57.830078 C 42.280492 56.345212 41.861328 54.67007 41.861328 52.898438 C 41.861328 46.812188 46.812188 41.861328 52.898438 41.861328 C 54.69306 41.861328 56.387431 42.291613 57.886719 43.054688 L 57.925781 43.074219 L 57.958984 43.044922 C 59.785202 41.457117 60.567418 38.892248 59.923828 36.427734 L 59.923828 36.425781 L 59.210938 34.166016 C 57.789098 29.663076 55.123387 25.74468 51.583984 22.890625 L 51.509766 22.830078 L 51.480469 22.921875 C 50.326393 26.652436 47.801957 29.842841 44.353516 31.820312 L 44.308594 31.845703 L 44.324219 31.896484 C 44.668163 32.984319 44.784265 34.129808 44.673828 35.257812 L 44.666016 35.330078 L 50.285156 35.330078 C 51.33186 35.330078 52.179688 36.177916 52.179688 37.224609 C 52.179688 38.271303 51.33186 39.119141 50.285156 39.119141 L 43.755859 39.119141 C 43.620524 39.119141 43.488562 39.103134 43.361328 39.076172 L 43.318359 39.068359 L 43.292969 39.103516 C 43.019563 39.507538 42.707823 39.892723 42.355469 40.251953 C 42.288863 40.319793 35.351562 47.392578 35.351562 47.392578 C 34.458078 48.303471 33.268273 48.804687 32 48.804688 C 30.731727 48.804688 29.541801 48.303467 28.648438 47.392578 C 28.648438 47.392578 21.712827 40.319514 21.646484 40.251953 C 21.294007 39.892739 20.980441 39.507544 20.707031 39.103516 L 20.681641 39.068359 L 20.638672 39.076172 C 20.511619 39.103219 20.379476 39.119141 20.244141 39.119141 L 13.714844 39.119141 C 12.66814 39.119141 11.820312 38.271303 11.820312 37.224609 C 11.820312 36.177916 12.66814 35.330078 13.714844 35.330078 L 19.333984 35.330078 L 19.326172 35.259766 C 19.215606 34.131756 19.331576 32.984168 19.675781 31.896484 L 19.691406 31.845703 L 19.646484 31.820312 C 16.198044 29.842841 13.673607 26.654259 12.519531 22.923828 L 12.490234 22.830078 z M 12.433594 23.052734 C 13.606419 26.759565 16.118691 29.929702 19.546875 31.908203 C 19.21651 32.974832 19.104313 34.094355 19.203125 35.199219 L 13.714844 35.199219 C 12.597548 35.199219 11.689453 36.107323 11.689453 37.224609 C 11.689453 38.341896 12.597548 39.248047 13.714844 39.248047 L 20.244141 39.248047 C 20.374533 39.248047 20.501334 39.23268 20.625 39.208984 C 20.89744 39.607463 21.204245 39.9886 21.552734 40.34375 C 21.614912 40.407069 28.556641 47.484375 28.556641 47.484375 C 29.473838 48.419566 30.697293 48.935547 32 48.935547 C 33.302707 48.935547 34.526044 48.419562 35.443359 47.484375 C 35.443359 47.484375 42.384272 40.407911 42.447266 40.34375 C 42.795603 39.988616 43.102569 39.607442 43.375 39.208984 C 43.498702 39.232596 43.625467 39.248047 43.755859 39.248047 L 50.285156 39.248047 C 51.402452 39.248047 52.310547 38.341896 52.310547 37.224609 C 52.310547 36.107323 51.402452 35.199219 50.285156 35.199219 L 44.796875 35.199219 C 44.895555 34.094356 44.783237 32.97493 44.453125 31.908203 C 47.881308 29.929703 50.393581 26.759689 51.566406 23.052734 C 55.051056 25.88542 57.680882 29.755293 59.085938 34.205078 L 59.798828 36.462891 C 60.425228 38.86733 59.663517 41.364749 57.896484 42.919922 C 56.409371 42.171686 54.735456 41.74868 52.962891 41.738281 L 52.962891 41.730469 L 52.898438 41.730469 C 46.741347 41.730469 41.730469 46.741347 41.730469 52.898438 C 41.730469 54.663671 42.150232 56.330859 42.882812 57.816406 C 39.445536 59.273292 35.796493 60.015625 32 60.015625 C 28.203507 60.015625 24.554464 59.273292 21.117188 57.816406 C 21.849768 56.330859 22.269531 54.663671 22.269531 52.898438 C 22.269531 46.741347 17.258653 41.730469 11.101562 41.730469 C 9.3043809 41.730469 7.6092402 42.162185 6.1035156 42.919922 C 4.3364874 41.36474 3.5749 38.867202 4.2011719 36.462891 L 4.2011719 36.458984 L 4.9140625 34.205078 C 6.3192477 29.75529 8.9489458 25.88542 12.433594 23.052734 z M 36.597656 29.974609 C 35.446572 29.974609 34.360141 30.434516 33.542969 31.267578 C 33.499085 31.31258 33.454985 31.360443 33.412109 31.408203 C 33.059502 31.800366 32.560583 32.035156 32.035156 32.035156 C 31.296399 32.035156 30.839129 31.687361 30.587891 31.408203 C 30.544827 31.3605 30.500879 31.314306 30.455078 31.267578 C 29.639452 30.436051 28.553419 29.976563 27.402344 29.976562 C 26.251269 29.976562 25.166772 30.434505 24.349609 31.267578 C 24.142459 31.478828 23.959688 31.706041 23.802734 31.945312 L 23.802734 31.947266 C 23.787333 31.972451 23.770239 31.999036 23.753906 32.023438 C 22.668538 33.755419 22.866976 36.087814 24.349609 37.599609 C 24.412028 37.663204 31.353516 44.742188 31.353516 44.742188 C 31.587721 44.981012 31.858881 45.017578 32 45.017578 C 32.141116 45.017578 32.41227 44.981021 32.646484 44.742188 C 32.646484 44.742188 39.588209 37.662933 39.650391 37.599609 C 41.132901 36.088079 41.33172 33.755674 40.246094 32.023438 L 40.246094 32.021484 C 40.245591 32.020737 40.244643 32.02028 40.244141 32.019531 L 40.232422 32.001953 C 40.231629 32.000745 40.231259 31.999257 40.230469 31.998047 C 40.219693 31.981544 40.207427 31.965958 40.197266 31.949219 L 40.197266 31.947266 C 40.040179 31.707728 39.857679 31.478844 39.650391 31.267578 C 38.833355 30.434511 37.748731 29.974609 36.597656 29.974609 z M 27.402344 30.105469 C 28.518689 30.105469 29.569374 30.550029 30.361328 31.357422 C 30.405388 31.402374 30.447898 31.449197 30.490234 31.496094 C 30.758576 31.794256 31.255154 32.166016 32.035156 32.166016 C 32.599549 32.166016 33.133553 31.914511 33.509766 31.496094 C 33.55151 31.449594 33.594203 31.402973 33.636719 31.359375 C 34.430266 30.550397 35.481301 30.105469 36.597656 30.105469 C 37.714001 30.105469 38.763236 30.550402 39.556641 31.359375 C 39.757912 31.564509 39.935417 31.785075 40.087891 32.017578 C 40.103202 32.042718 40.118539 32.06959 40.134766 32.09375 C 41.188559 33.775194 40.996191 36.040083 39.556641 37.507812 C 39.490303 37.575369 32.552734 44.650391 32.552734 44.650391 C 32.348869 44.858277 32.118804 44.886719 32 44.886719 C 31.881199 44.886719 31.651121 44.858266 31.447266 44.650391 C 31.447266 44.650391 24.508341 37.574018 24.443359 37.507812 C 23.004152 36.040296 22.810929 33.776711 23.863281 32.095703 L 23.863281 32.09375 C 23.879748 32.069112 23.896431 32.043144 23.912109 32.017578 L 23.914062 32.015625 C 24.066073 31.784205 24.242863 31.563839 24.443359 31.359375 C 25.236896 30.550388 26.285999 30.105469 27.402344 30.105469 z M 11.101562 45.648438 C 7.1050621 45.648438 3.8535156 48.901937 3.8535156 52.898438 C 3.8535156 56.894938 7.1050621 60.146484 11.101562 60.146484 C 15.098063 60.146484 18.351562 56.894938 18.351562 52.898438 C 18.351562 48.901937 15.098063 45.648437 11.101562 45.648438 z M 52.898438 45.648438 C 48.901937 45.648438 45.648437 48.901937 45.648438 52.898438 C 45.648438 56.894938 48.901937 60.146484 52.898438 60.146484 C 56.894938 60.146484 60.146484 56.894938 60.146484 52.898438 C 60.146484 48.901937 56.894938 45.648437 52.898438 45.648438 z M 11.101562 45.779297 C 15.027222 45.779297 18.220703 48.972778 18.220703 52.898438 C 18.220703 56.824097 15.027222 60.015625 11.101562 60.015625 C 7.1759029 60.015625 3.984375 56.824097 3.984375 52.898438 C 3.984375 48.972778 7.1759029 45.779297 11.101562 45.779297 z M 52.898438 45.779297 C 56.824097 45.779297 60.015625 48.972778 60.015625 52.898438 C 60.015625 56.824097 56.824097 60.015625 52.898438 60.015625 C 48.972778 60.015625 45.779297 56.824097 45.779297 52.898438 C 45.779297 48.972778 48.972778 45.779297 52.898438 45.779297 z "
     id="path1698" /></g>
<g
   id="g1096"
   transform="translate(-213,-213.00003)">
</g>
<g
   id="g1098"
   transform="translate(-213,-213.00003)">
</g>
<g
   id="g1100"
   transform="translate(-213,-213.00003)">
</g>
<g
   id="g1102"
   transform="translate(-213,-213.00003)">
</g>
<g
   id="g1104"
   transform="translate(-213,-213.00003)">
</g>
<g
   id="g1106"
   transform="translate(-213,-213.00003)">
</g>
<g
   id="g1108"
   transform="translate(-213,-213.00003)">
</g>
<g
   id="g1110"
   transform="translate(-213,-213.00003)">
</g>
<g
   id="g1112"
   transform="translate(-213,-213.00003)">
</g>
<g
   id="g1114"
   transform="translate(-213,-213.00003)">
</g>
<g
   id="g1116"
   transform="translate(-213,-213.00003)">
</g>
<g
   id="g1118"
   transform="translate(-213,-213.00003)">
</g>
<g
   id="g1120"
   transform="translate(-213,-213.00003)">
</g>
<g
   id="g1122"
   transform="translate(-213,-213.00003)">
</g>
<g
   id="g1124"
   transform="translate(-213,-213.00003)">
</g>
<path
   id="path5169"
   d="m 27.902095,40.913466 c -4.530734,-4.603 -4.575436,-4.666429 -4.567378,-6.480734 0.0063,-1.421117 0.361501,-2.240571 1.371129,-3.163314 0.834933,-0.763082 1.668751,-1.075376 2.830331,-1.06006 1.024639,0.01351 1.851675,0.381045 2.877594,1.278804 1.154365,1.010159 2.005464,1.010201 3.178912,1.62e-4 1.059056,-0.91158 1.853671,-1.265545 2.87114,-1.278961 1.161581,-0.01532 1.995398,0.296978 2.830331,1.06006 1.009627,0.922743 1.364819,1.742197 1.37113,3.163314 0.0081,1.819602 -0.03916,1.886637 -4.570839,6.486235 -2.20702,2.240091 -3.968546,3.930909 -4.095303,3.930909 -0.126841,0 -1.887566,-1.691692 -4.097047,-3.936415 z"
   style="fill:#e78b38;stroke-width:0.124756;fill-opacity:1" /></svg>
